<?xml version="1.0" encoding="utf-8"?>
<!-- Generator: Adobe Illustrator 19.0.0, SVG Export Plug-In . SVG Version: 6.00 Build 0)  -->
<svg version="1.1" id="Layer_1" xmlns="http://www.w3.org/2000/svg" xmlns:xlink="http://www.w3.org/1999/xlink" x="0px" y="0px"
	 viewBox="0 0 113.1 125.3" style="enable-background:new 0 0 113.1 125.3;" xml:space="preserve">
<style type="text/css">
	.st0{fill:url(#SVGID_1_);}
	.st1{fill:url(#SVGID_2_);}
	.st2{fill:url(#SVGID_3_);}
	.st3{fill:url(#SVGID_4_);}
</style>
<linearGradient id="SVGID_1_" gradientUnits="userSpaceOnUse" x1="-905.0511" y1="4675.187" x2="-904.0511" y2="4675.187" gradientTransform="matrix(107.933 0 0 -107.933 97690.5234 504667.4688)">
	<stop  offset="0" style="stop-color:#00AAEB"/>
	<stop  offset="2.241981e-002" style="stop-color:#03A3E5"/>
	<stop  offset="0.1349" style="stop-color:#0F82CA"/>
	<stop  offset="0.2568" style="stop-color:#1967B3"/>
	<stop  offset="0.3894" style="stop-color:#2153A2"/>
	<stop  offset="0.538" style="stop-color:#274495"/>
	<stop  offset="0.7159" style="stop-color:#2A3C8E"/>
	<stop  offset="1" style="stop-color:#2B398C"/>
</linearGradient>
<path class="st0" d="M46.1,91.8l1.5-1.3c2.5,2.8,4,5.4,4,8.2c0,1.8-0.7,3.5-1.8,5c-1.8,2.4-4.6,3.8-7.4,3.8c-1.3,0-2.5-0.3-3.7-0.8
	c-3.1-1.4-5-4.4-4.9-7.9c0-1.5,0.3-3.1,0.8-4.8l1.9,0.5l-1,1.7C26.7,91.3,18,86.5,9.3,81.7c-1.5-0.7-3.2-2.3-3.1-4.5
	c0-0.5,0.1-1,0.2-1.5c0.6-2.3,2.6-4,4.9-3.9c1,0,2,0.3,2.9,0.8c6.5,3.6,13.1,7.3,19.6,10.9c1.7,0.9,3,1.3,4,1.3c1.7,0,3-0.9,4.8-4
	C53.3,61.2,64.1,41.6,75,22.1c2.2-4.1,5.7-7.9,11.2-8.4c0.4,0,0.7-0.1,1.1-0.1c1.7,0,3.4,0.3,5,1.1c5.9,3,11.6,6.3,17.3,9.5
	c1.3,0.7,3.4,2,3.4,4.6c0,0.7-0.2,1.4-0.4,2c-0.8,1.8-2.7,2.5-4.2,2.5c-1.2,0-2.3-0.3-3.4-0.9c-3.4-1.9-6.8-3.8-10.2-5.7
	c-1.8-1-3.3-1.4-4.5-1.4c-2.1,0-3.9,1-5.8,4c-2.1,3.4-4.1,7.1-6.1,10.8C70.1,55,61.9,69.8,53.6,84.6c-1.8,3.1-4,5.7-5.9,8.3
	L46.1,91.8l1.5-1.3L46.1,91.8l-1.6-1.2c2-2.8,4.2-5.3,5.6-8C58.4,67.9,66.6,53,74.8,38.2c2-3.6,3.9-7.3,6.2-10.9
	c2.2-3.7,5.4-5.9,9.2-5.9c2.1,0,4.3,0.7,6.5,1.9c3.4,1.9,6.8,3.8,10.2,5.7c0.5,0.3,1.1,0.4,1.5,0.4c0.5,0,0.5-0.1,0.5-0.1
	c0.1-0.3,0.1-0.4,0.1-0.5c0,0-0.1-0.5-1.4-1.1c-5.8-3.2-11.4-6.5-17.2-9.4c-0.8-0.4-2-0.7-3.2-0.7c-0.3,0-0.5,0-0.7,0
	c-3.8,0.4-6.1,2.8-8.1,6.4C67.6,43.6,56.8,63.1,46,82.7c-1.9,3.6-4.7,6.1-8.3,6c-1.9,0-3.9-0.7-5.9-1.8c-6.5-3.6-13.1-7.3-19.6-10.9
	c-0.4-0.2-0.7-0.3-0.9-0.3c-0.5,0-0.7,0.1-1,1c-0.1,0.2-0.1,0.4-0.1,0.5c0,0.2,0,0.4,1.1,1c8.7,4.8,17.4,9.6,26.1,14.5
	c0.8,0.4,1.2,1.4,1,2.3c-0.4,1.5-0.6,2.8-0.6,3.8c0.1,2.3,0.7,3.2,2.7,4.3c0.6,0.3,1.3,0.4,2,0.4c1.6,0,3.2-0.8,4.2-2.2
	c0.8-1,1-1.8,1-2.6c0-1.2-0.8-3.1-3-5.6c-0.6-0.7-0.7-1.7-0.1-2.5L46.1,91.8z"/>
<linearGradient id="SVGID_2_" gradientUnits="userSpaceOnUse" x1="-906.9254" y1="4698.8022" x2="-905.9254" y2="4698.8022" gradientTransform="matrix(52.418 0 0 -52.418 47538.7148 246357.6563)">
	<stop  offset="0" style="stop-color:#00AAEB"/>
	<stop  offset="2.241981e-002" style="stop-color:#03A3E5"/>
	<stop  offset="0.1349" style="stop-color:#0F82CA"/>
	<stop  offset="0.2568" style="stop-color:#1967B3"/>
	<stop  offset="0.3894" style="stop-color:#2153A2"/>
	<stop  offset="0.538" style="stop-color:#274495"/>
	<stop  offset="0.7159" style="stop-color:#2A3C8E"/>
	<stop  offset="1" style="stop-color:#2B398C"/>
</linearGradient>
<path class="st1" d="M35.1,78.2L34.2,80c-0.8-0.4-1.7-0.9-2.6-1.4c-9.7-5.4-19.3-10.8-29-16C1.4,62,0,60.8,0,59
	c0-1.1,0.4-1.8,0.8-2.6c4.5-7.8,8.8-15.8,13.3-23.8c0.5-0.9,1.6-1.3,2.5-0.9c0.6,0.3,1.3,0.4,2.1,0.9c10,5.6,20,11.1,30.1,16.7
	c0.7,0.4,2.5,1.1,2.6,3.4c0,0.8-0.3,1.5-0.6,2.2c-4.5,7.9-8.8,15.8-13.3,23.7c-0.5,0.8-0.7,0.8-0.9,1.1C36,80.2,35,80.4,34.2,80
	L35.1,78.2l-1.5-1.4c0.2-0.2,0.4-0.4,0.4-0.5l0.4,0.4L34,76.5l0.1-0.1l0.4,0.4L34,76.5c4.4-7.9,8.8-15.8,13.3-23.7
	c0.1-0.2,0-0.2,0.1-0.2h0.7l-0.5,0.6c0,0-0.2-0.3-0.2-0.6h0.7l-0.5,0.6c0,0-0.3-0.2-0.7-0.4c-10-5.5-20.1-11.1-30.1-16.7
	c-0.3-0.2-0.9-0.4-1.7-0.7l0.8-1.8l1.7,1c-4.5,8-8.8,16-13.3,23.9C4,58.9,4.1,59,4,59H3.4l0.4-0.4c0,0,0.1,0.3,0.1,0.4H3.4l0.4-0.4
	c0,0,0.2,0.2,0.6,0.4c9.7,5.3,19.4,10.7,29,16.1c0.8,0.4,1.7,0.9,2.5,1.3L35.1,78.2l-1.5-1.4L35.1,78.2z"/>
<linearGradient id="SVGID_3_" gradientUnits="userSpaceOnUse" x1="-906.8978" y1="4698.4551" x2="-905.8978" y2="4698.4551" gradientTransform="matrix(52.8177 0 0 -52.8177 47917.2852 248185.875)">
	<stop  offset="0" style="stop-color:#00AAEB"/>
	<stop  offset="2.241981e-002" style="stop-color:#03A3E5"/>
	<stop  offset="0.1349" style="stop-color:#0F82CA"/>
	<stop  offset="0.2568" style="stop-color:#1967B3"/>
	<stop  offset="0.3894" style="stop-color:#2153A2"/>
	<stop  offset="0.538" style="stop-color:#274495"/>
	<stop  offset="0.7159" style="stop-color:#2A3C8E"/>
	<stop  offset="1" style="stop-color:#2B398C"/>
</linearGradient>
<path class="st2" d="M52.8,46.6l-1,1.7c-4.7-2.6-9.1-5.1-13.5-7.5c-6.1-3.4-12.2-6.8-18.3-10.1c-1.1-0.6-2.5-1.7-2.5-3.5
	c0-1,0.4-1.8,0.8-2.5c4.2-7.4,8.3-14.9,12.5-22.4C31.2,1.6,32,0.1,34,0c0.8,0,1.4,0.3,2,0.6C46.4,6.4,56.9,12.2,67.3,18
	c0.5,0.3,0.8,0.6,1.2,0.8c0.8,0.6,1.1,1.7,0.6,2.6c-3,5.4-7.7,13.8-14.5,26.1c-0.3,0.5-0.7,0.8-1.2,1c-0.5,0.1-1.1,0.1-1.5-0.2
	L52.8,46.6l-1.7-1c6.8-12.3,11.5-20.8,14.5-26.1l1.7,1l-1.2,1.6c-0.5-0.4-0.8-0.6-0.8-0.6C55,15.7,44.5,9.9,34.1,4.1
	C34.1,4.1,34,4,34,4V3.2l0.6,0.6c0,0-0.4,0.2-0.6,0.2V3.2l0.6,0.6c0,0-0.1,0.1-0.3,0.5c-4.1,7.5-8.2,15-12.5,22.4
	c-0.3,0.5-0.2,0.6-0.3,0.6h-0.6l0.5-0.4c0,0,0.2,0.3,0.1,0.4h-0.6l0.5-0.4c0,0,0.2,0.2,0.6,0.4c6.2,3.3,12.2,6.8,18.3,10.1
	c4.4,2.5,8.8,4.9,13.5,7.5L52.8,46.6l-1.7-1L52.8,46.6z"/>
<linearGradient id="SVGID_4_" gradientUnits="userSpaceOnUse" x1="-907.0308" y1="4700.1284" x2="-906.0308" y2="4700.1284" gradientTransform="matrix(50.9446 0 0 -50.9446 46225.2891 239550.0156)">
	<stop  offset="0" style="stop-color:#00AAEB"/>
	<stop  offset="2.241981e-002" style="stop-color:#03A3E5"/>
	<stop  offset="0.1349" style="stop-color:#0F82CA"/>
	<stop  offset="0.2568" style="stop-color:#1967B3"/>
	<stop  offset="0.3894" style="stop-color:#2153A2"/>
	<stop  offset="0.538" style="stop-color:#274495"/>
	<stop  offset="0.7159" style="stop-color:#2A3C8E"/>
	<stop  offset="1" style="stop-color:#2B398C"/>
</linearGradient>
<path class="st3" d="M21.2,93l1.7,1c-1,1.8-1.5,3.9-1.5,6.3c0,6.4,3.8,14,9.8,17.8c3.4,2.2,7.3,3.3,11.2,3.3
	c6.4,0,12.8-2.9,16.8-8.4c2.7-3.7,4.1-8.4,4.1-12.9c0-5.4-1.9-10.4-5.4-13.3l1.3-1.5l1.4,1.4c-1.7,1.8-2,2.5-2,3.1
	c0,0.5,0.2,1.3,0.9,2.7c1.3,2.7,1.9,5.5,1.9,8.4c0,4.8-1.9,9.5-5.4,13.1c-3.6,3.5-8.4,5.4-13.3,5.4c-2.8,0-5.7-0.6-8.4-1.9
	c-6.4-3.1-10.9-9.7-10.9-16.6c0-0.8,0.1-1.5,0.2-2.3c0.1-0.4,0.1-0.7,0.1-0.9c-0.2-1.2,0-1-1.5-1.8c-0.8-0.3-1.3-0.6-1.9-0.9
	L21.2,93l1.7,1L21.2,93l0.9-1.8c0.7,0.4,1.2,0.6,1.5,0.7c2.3,0.7,4.3,2.9,4.1,5.5c0,0.5,0,1-0.1,1.5c-0.1,0.6-0.1,1.1-0.1,1.7
	c0,5.1,3.6,10.6,8.7,13c2.1,1,4.4,1.5,6.7,1.5c3.9,0,7.7-1.5,10.5-4.2c2.8-2.8,4.2-6.4,4.2-10.2c0-2.2-0.5-4.5-1.5-6.6
	c-0.8-1.6-1.3-2.9-1.3-4.5c0-2.3,1.3-4.1,3.1-5.9l1.3-1.3l1.4,1.2c4.6,3.9,6.8,10.1,6.9,16.4c0,5.3-1.6,10.8-4.9,15.3
	c-4.8,6.5-12.4,10-20,10c-4.6,0-9.3-1.3-13.4-3.9c-7.2-4.7-11.5-13.2-11.6-21.1c0-2.9,0.6-5.7,2-8.2l0.9-1.7l1.7,0.8L21.2,93z"/>
</svg>
