<?xml version="1.0" encoding="utf-8"?>
<!-- Generator: Adobe Illustrator 19.0.0, SVG Export Plug-In . SVG Version: 6.00 Build 0)  -->
<svg version="1.1" id="Layer_1" xmlns="http://www.w3.org/2000/svg" xmlns:xlink="http://www.w3.org/1999/xlink" x="0px" y="0px"
	 viewBox="0 0 97.3 94.3" style="enable-background:new 0 0 97.3 94.3;" xml:space="preserve">
<style type="text/css">
	.st0{fill:url(#SVGID_1_);}
	.st1{fill:url(#SVGID_2_);}
	.st2{fill:url(#SVGID_3_);}
</style>
<linearGradient id="SVGID_1_" gradientUnits="userSpaceOnUse" x1="-907.9704" y1="4660.8281" x2="-906.9704" y2="4660.8281" gradientTransform="matrix(98.5195 0 0 -98.5195 89452.1016 459229.5938)">
	<stop  offset="0" style="stop-color:#00AAEB"/>
	<stop  offset="0.2524" style="stop-color:#0B8DD2"/>
	<stop  offset="1" style="stop-color:#2B398C"/>
</linearGradient>
<path class="st0" d="M57.1,55l1.8-0.8c0.6,1.4,1.5,2.6,1.9,4.5c0,0,0,0.2,0,0.2c0,0,0,0,0.4,0.1c6.2,1.4,10.9,6.5,11.6,12.9
	c0.1,0.7,0.1,1.3,0.1,2c0,5-2.4,9.4-6.7,12.2c-2.6,1.7-5.3,2.6-8.1,2.6c-2.5,0-5.1-0.7-7.5-2.1c-5-2.7-7.6-7.6-7.6-13.1
	c0-0.9,0.1-1.8,0.2-2.7c0,0,0-0.1,0-0.1c0-0.1,0-0.4-0.1-0.5l0.4-0.1l-0.2,0.3c-0.2-0.1-0.2-0.1-0.2-0.1l0.4-0.1l-0.2,0.3
	c-4.7-3.8-9.5-7.5-14.3-11.2c-1.3-1.1-2.6-2.1-2.8-2c-1.3-0.1-2.7-0.2-4.1-0.2c-1.9,0-3.8,0.1-5.8,0.1v-2l2,0.3
	c-0.1,0.8-0.2,1.2-0.2,1.2c0,1.3,0,2.6,0,3.8c0,4.2,0,8.5,0,12.7c0,5.8,0,11.6,0,17.4c0,0,0,0,0,0c0,0.3,0,0.3,0,0.3L17.4,91
	l0.2-0.7c0.1,0,0.5,0.3,0.5,0.4L17.4,91l0.2-0.7c0,0,0.3,0,0.7,0v1.3l-0.1-1.3l0.1,0v1.3l0-1.3h0c11.7,0,23.4,0,35.1,0
	c13.2,0,26.4,0,39.5,0l0,0l0,0L93,91.8l0-1.5l0.1,0L93,91.8l0-1.5c0.4,0,0.6,0,0.6,0l0.1,0.6l-0.5-0.3c0.1-0.2,0.3-0.3,0.3-0.3
	l0.1,0.6l-0.5-0.3c0,0,0-0.1,0-0.6v-0.1l2,0l-2,0c0-5.6,0-11.2,0-16.8c0-4.1,0-8.2,0-12.3c0-1.2,0-2.5,0-3.7c0-0.5-0.1-1.2-0.1-2
	l2-0.1v2H57.1V55l1.8-0.8L57.1,55v-2H97l0.1,1.9c0,0.7,0.1,1.4,0.2,2.3c0,1.2,0,2.5,0,3.7c0,4.1,0,8.2,0,12.3c0,5.6,0,11.2,0,16.8
	l0,0l0,0V90c0,1-0.1,2.2-1.1,3.2c-1,1-2.2,1.1-3.3,1.1l-0.1,0l0.1-2l0,2c-13.2,0-26.4,0-39.5,0c-11.7,0-23.4,0-35.1,0l0-2l0.1,2
	l-0.1,0c-0.7,0-1.6,0.1-2.7-0.6c-1.2-0.7-1.6-2.2-1.6-3.3l0-0.1c0-5.8,0-11.5,0-17.3c0-4.2,0-8.5,0-12.7c0-1.3,0-2.6,0-3.8
	c0-0.8,0.2-1.2,0.2-1.8l0.2-1.7h1.7c1.9,0,3.9-0.1,5.8-0.1c1.5,0,3,0,4.5,0.2c2.5,0.4,3.8,2,4.9,2.8c4.8,3.7,9.6,7.5,14.4,11.3
	c1.3,1.2,1.3,2.3,1.4,3.4c0,0.2,0,0.4,0,0.6c-0.1,0.8-0.2,1.5-0.2,2.2c0.1,4.4,1.7,7.5,5.5,9.6c1.9,1.1,3.7,1.5,5.5,1.6
	c2,0,3.9-0.6,5.9-1.9c3.4-2.3,4.9-5.1,4.9-8.9c0-0.5,0-1-0.1-1.5c-0.5-4.7-3.9-8.4-8.4-9.5c-1.3-0.1-3.3-1.5-3.5-3.4
	c-0.1-0.8-0.8-1.9-1.7-3.6L54,53h3.1V55z M2.7,26.8L4,25.2c0.5,0.4,0.8,0.7,0.9,0.7c4.6,3.2,9.3,6.3,14,9.6c1.2,1,2,2.1,2.1,3.9
	c0,0.1,0,0.2,0,0.4c0,0.4-0.1,0.8-0.1,1.1c0,3.1,1.4,5.2,4.3,7.4c7.2,5.4,14.3,11,21.5,16.5c1.1,0.9,2.3,1.3,3.4,1.3
	c1.4,0,2.7-0.6,3.8-1.9c0.4-0.5,0.9-1.7,0.9-3c0-1.6-0.6-3-1.9-4c-3.9-2.8-7.5-5.8-11.2-8.6c-2.3-1.8-3.7-4.3-3.7-7
	c0-1.9,0.7-3.8,2-5.5c1.6-2,3.9-3.1,6.3-3.1c2,0,4.1,0.7,5.9,2.1c2.3,1.8,4.3,3.6,6.4,5.2c1.1,0.7,2,2,2,3.4c0,0.7-0.2,1.2-0.3,1.8
	c-0.8,2.3-1.4,4.7-2.3,7.5l-1.9-0.6v-2c2.1,0,4.2,0,6.1,0c2.3,0,4.5,0,6.7-0.1l0,0.6l-0.5-0.5c0,0.1,0,0,0.5-0.1l0,0.6l-0.5-0.5l0,0
	c0.8-2.6,1.6-5.2,2.3-7.9c0.2-0.6,0.3-1.2,0.3-1.7c0-1.1-0.3-2.1-1.2-3.2c-2-2.5-4.3-5-6.1-8.1c-3.7-6-8.2-8.9-15.3-9.5
	c-4.9-0.4-10.3-1.4-14.9-5.1c-2.5-2.1-5.3-4-8-6.1c-2.1-1.5-4.2-3.1-6.4-4.7l1.2-1.6L22.1,4c-6,8.1-11.8,16-17.8,24L2.7,26.8L4,25.2
	L2.7,26.8l-1.6-1.2c6-8.1,11.8-15.9,17.8-24L20.1,0l1.6,1.2c2.2,1.6,4.3,3.1,6.4,4.7c2.7,2,5.5,4,8.1,6.2c3.5,2.9,8,3.8,12.7,4.2
	c8.1,0.6,14.3,4.5,18.4,11.4c1.6,2.6,3.7,5,5.8,7.7c1.3,1.7,2,3.6,2,5.6c0,0.9-0.1,1.9-0.4,2.8c-0.8,2.7-1.5,5.4-2.4,8.1
	c-0.7,1.4-1.2,2.3-3.3,2.6c-2.3,0.1-4.5,0.1-6.8,0.1c-2,0-4,0-6.1,0h-2.7l0.8-2.6c0.8-2.7,1.5-5.2,2.3-7.6c0.1-0.3,0.1-0.5,0.1-0.5
	h0.2L56.6,44l0-0.1h0.2L56.6,44c0,0-0.1-0.1-0.3-0.3c-2.4-1.7-4.5-3.6-6.6-5.3c-1.1-0.9-2.4-1.3-3.4-1.3c-1.3,0-2.4,0.5-3.2,1.5
	c-0.8,1.1-1.2,2.1-1.2,3c0,1.3,0.6,2.6,2.2,3.8c3.7,2.9,7.4,5.8,11.1,8.6c2.5,1.8,3.5,4.7,3.5,7.2c0,2.1-0.6,4-1.8,5.5
	c-1.8,2.2-4.3,3.3-6.9,3.3c-2.1,0-4.1-0.7-5.9-2.1c-7.1-5.5-14.2-11-21.4-16.5c-3.4-2.5-5.9-6-5.9-10.6c0-0.5,0-1,0.1-1.6l0.7,0.1
	l-0.8,0l0-0.1l0.7,0.1l-0.8,0c0-0.1-0.4-0.6-0.4-0.6c-4.6-3.2-9.2-6.4-13.9-9.6c-0.5-0.3-0.7-0.6-1.2-0.9L0,27.2l1.1-1.5L2.7,26.8z"
	/>
<linearGradient id="SVGID_2_" gradientUnits="userSpaceOnUse" x1="-907.628" y1="4664.7876" x2="-906.628" y2="4664.7876" gradientTransform="matrix(84.2406 0 0 -84.2406 76472.7188 393038.0938)">
	<stop  offset="0" style="stop-color:#00AAEB"/>
	<stop  offset="0.2524" style="stop-color:#0B8DD2"/>
	<stop  offset="1" style="stop-color:#2B398C"/>
</linearGradient>
<path class="st1" d="M57.1,55v-2H97l0.1,1.9c0,0.7,0.1,1.4,0.2,2.3c0,1.2,0,2.5,0,3.7c0,4.1,0,8.2,0,12.3c0,5.6,0,11.2,0,16.8
	c0,0,0,0.1,0,0.1c0,1-0.1,2.2-1.1,3.2c-1,1-2.2,1.1-3.3,1.1l-0.2,0l0.1-2l0,2c-13.2,0-26.3,0-39.5,0c-11.7,0-23.4,0-35.1,0l0-2l0,2
	l-0.1,0c-0.7,0-1.6,0.1-2.7-0.6c-1.2-0.7-1.6-2.2-1.6-3.3l0-0.1l2,0l-2,0c0-5.8,0-11.6,0-17.3c0-4.2,0-8.5,0-12.7c0-1.3,0-2.5,0-3.8
	c0-0.8,0.2-1.2,0.2-1.8l0.2-1.7h1.7c1.9,0,3.9-0.1,5.8-0.1c1.5,0,3,0,4.5,0.2c2.5,0.4,3.8,2,4.9,2.8c4.8,3.7,9.6,7.5,14.4,11.3
	c1.3,1.2,1.3,2.3,1.4,3.4c0,0.2,0,0.4,0,0.6c-0.1,0.8-0.2,1.5-0.2,2.2c0.1,4.4,1.7,7.5,5.5,9.6c1.9,1.1,3.7,1.5,5.5,1.6
	c2,0,3.9-0.6,5.9-1.9c3.4-2.3,4.9-5.1,4.9-8.9c0-0.5,0-1-0.1-1.5c-0.5-4.7-3.9-8.4-8.4-9.5c-1.3-0.1-3.3-1.5-3.5-3.4
	c-0.1-0.8-0.8-1.9-1.7-3.6L54,53h3.1V55l1.8-0.8c0.6,1.4,1.5,2.6,1.9,4.5c0,0,0,0.2,0,0.2c0,0,0,0,0.4,0.1
	c6.2,1.4,10.9,6.5,11.6,12.9c0.1,0.7,0.1,1.3,0.1,2c0,5-2.4,9.4-6.7,12.2c-2.6,1.7-5.3,2.6-8.1,2.6c-2.5,0-5.1-0.7-7.5-2.1
	c-5-2.7-7.6-7.6-7.6-13.1c0-0.9,0.1-1.8,0.2-2.7l0-0.1c0-0.1,0-0.4-0.1-0.5l0.4-0.1l-0.2,0.3c-0.2-0.1-0.2-0.1-0.2-0.1l0.4-0.1
	l-0.2,0.3c-4.7-3.8-9.5-7.5-14.3-11.2c-1.3-1.1-2.6-2.1-2.8-2c-1.3-0.1-2.7-0.2-4.1-0.2c-1.9,0-3.8,0.1-5.8,0.1v-2l2,0.3
	c-0.1,0.8-0.2,1.2-0.2,1.2c0,1.3,0,2.5,0,3.8c0,4.2,0,8.5,0,12.7c0,5.8,0,11.6,0,17.4l0,0l0,0l-0.2,0h0.2l0,0l-0.2,0h0.2
	c0,0.3,0,0.3,0,0.3L17.4,91l0.2-0.7c0.1,0,0.5,0.3,0.5,0.5L17.4,91l0.2-0.7c0,0,0.2,0,0.7,0l0,0l0,0h0c11.7,0,23.4,0,35.1,0
	c13.2,0,26.3,0,39.5,0l0.1,0l0.1,0L93,92l0-1.7l0.1,0L93,92l0-1.7c0.4,0,0.6,0,0.6,0l0.1,0.6l-0.5-0.3c0.1-0.2,0.3-0.3,0.3-0.3
	l0.1,0.6l-0.5-0.3c0,0,0-0.1,0-0.6l0-0.1c0-5.6,0-11.2,0-16.8c0-4.1,0-8.2,0-12.3c0-1.2,0-2.5,0-3.7c0-0.5-0.1-1.2-0.1-2l2-0.1v2
	H57.1V55l1.8-0.8L57.1,55z"/>
<linearGradient id="SVGID_3_" gradientUnits="userSpaceOnUse" x1="-907.3828" y1="4667.7417" x2="-906.3828" y2="4667.7417" gradientTransform="matrix(76.3187 0 0 -76.3187 69249.5938 356271.0313)">
	<stop  offset="0" style="stop-color:#00AAEB"/>
	<stop  offset="0.2524" style="stop-color:#0B8DD2"/>
	<stop  offset="1" style="stop-color:#2B398C"/>
</linearGradient>
<path class="st2" d="M2.7,26.8l-1.6-1.2c6-8.1,11.8-15.9,17.8-24L20.1,0l1.6,1.2c2.2,1.6,4.3,3.1,6.4,4.7c2.7,2,5.5,4,8.1,6.2
	c3.5,2.9,8,3.8,12.7,4.2c8.1,0.6,14.3,4.5,18.4,11.4c1.6,2.6,3.7,5,5.8,7.7c1.3,1.7,2,3.6,2,5.6c0,0.9-0.1,1.9-0.4,2.8
	c-0.8,2.7-1.5,5.4-2.4,8.1c-0.7,1.4-1.2,2.3-3.3,2.6c-2.3,0.1-4.5,0.1-6.8,0.1c-2,0-4,0-6.1,0h-2.7l0.8-2.6c0.8-2.7,1.5-5.2,2.3-7.6
	c0.1-0.3,0.1-0.5,0.1-0.5h0.2L56.6,44l0-0.1h0.2L56.6,44c0,0-0.1-0.1-0.3-0.3c-2.4-1.7-4.5-3.6-6.6-5.3c-1.1-0.9-2.4-1.3-3.4-1.3
	c-1.3,0-2.4,0.5-3.2,1.5c-0.8,1.1-1.2,2.1-1.2,3c0,1.3,0.6,2.6,2.2,3.8c3.7,2.9,7.4,5.8,11.1,8.6c2.5,1.8,3.5,4.7,3.5,7.2
	c0,2.1-0.6,4-1.8,5.5c-1.8,2.2-4.3,3.3-6.9,3.3c-2.1,0-4.1-0.7-5.9-2.1c-7.1-5.5-14.2-11-21.4-16.5c-3.4-2.5-5.9-6-5.9-10.6
	c0-0.5,0-1,0.1-1.6l0.7,0.1l-0.8,0l0-0.1l0.7,0.1l-0.8,0c0-0.1-0.4-0.6-0.4-0.6c-4.6-3.2-9.2-6.4-13.9-9.6c-0.5-0.3-0.7-0.6-1.2-0.9
	L0,27.2l1.1-1.5L2.7,26.8L4,25.2c0.5,0.4,0.8,0.7,0.9,0.7c4.6,3.2,9.3,6.3,14,9.6c1.2,1,2,2.1,2.1,3.9c0,0.1,0,0.2,0,0.4
	c0,0.4-0.1,0.8-0.1,1.1c0,3.1,1.4,5.2,4.3,7.4c7.2,5.4,14.3,11,21.5,16.5c1.1,0.9,2.3,1.3,3.4,1.3c1.4,0,2.7-0.6,3.8-1.9
	c0.4-0.5,0.9-1.7,0.9-3c0-1.6-0.6-3-1.9-4c-3.9-2.8-7.5-5.8-11.2-8.6c-2.3-1.8-3.7-4.3-3.7-7c0-1.9,0.7-3.8,2-5.5
	c1.6-2,3.9-3.1,6.3-3.1c2,0,4.1,0.7,5.9,2.1c2.3,1.8,4.3,3.6,6.4,5.2c1.1,0.7,2,2,2,3.4c0,0.7-0.2,1.2-0.3,1.8
	c-0.8,2.3-1.4,4.7-2.3,7.5l-1.9-0.6v-2c2.1,0,4.2,0,6.1,0c2.3,0,4.5,0,6.7-0.1l0,0.6l-0.5-0.5c0,0.1,0,0,0.5-0.1l0,0.6l-0.5-0.5l0,0
	c0.8-2.6,1.6-5.2,2.3-7.9c0.2-0.6,0.3-1.2,0.3-1.7c0-1.1-0.3-2.1-1.2-3.2c-2-2.5-4.3-5-6.1-8.1c-3.7-6-8.2-8.9-15.3-9.5
	c-4.9-0.4-10.3-1.4-14.9-5.1c-2.5-2.1-5.3-4-8-6.1c-2.1-1.5-4.2-3.1-6.4-4.7l1.2-1.6L22.1,4c-6,8.1-11.8,16-17.8,24L2.7,26.8L4,25.2
	L2.7,26.8z"/>
</svg>
