<?xml version="1.0" encoding="utf-8"?>
<!-- Generator: Adobe Illustrator 19.0.0, SVG Export Plug-In . SVG Version: 6.00 Build 0)  -->
<svg version="1.1" id="Layer_1" xmlns="http://www.w3.org/2000/svg" xmlns:xlink="http://www.w3.org/1999/xlink" x="0px" y="0px"
	 viewBox="0 0 65.6 66.3" style="enable-background:new 0 0 65.6 66.3;" xml:space="preserve">
<style type="text/css">
	.st0{fill:url(#XMLID_55_);}
	.st1{fill:url(#XMLID_56_);}
	.st2{fill:url(#XMLID_57_);}
</style>
<g>
	<g id="XMLID_40_">
		<linearGradient id="XMLID_55_" gradientUnits="userSpaceOnUse" x1="0" y1="33.1537" x2="65.5691" y2="33.1537">
			<stop  offset="0" style="stop-color:#00A9EA"/>
			<stop  offset="1" style="stop-color:#2B398C"/>
		</linearGradient>
		<path id="XMLID_65_" class="st0" d="M0,33.2c0,5.8,0,11.7,0,17.5c0,7,4.9,14.4,13.5,15.4c2.2,0.2,4.5,0.2,6.7,0.2
			c9.8,0,19.6,0,29.5,0c7.1,0,13-4.2,15.1-10.9c0.5-1.5,0.7-3.2,0.7-4.8c0.1-11.6,0-23.2,0-34.8c0-7.9-5.1-13-10.2-15
			C53.6,0.2,51.7,0,49.9,0c-6.2,0-12.4,0-18.6,0c-5.5,0-11.1-0.2-16.6,0C7.8,0.3,1.4,5.3,0.2,13.2c-0.1,1-0.2,1.9-0.2,2.9
			C0,21.8,0,27.5,0,33.2C0,33.2,0,33.2,0,33.2z M62.4,33C62.4,33,62.4,33,62.4,33c0.1,2.9,0.1,5.9,0.1,8.8c0,3,0,6,0,8.9
			c-0.2,7.5-5.7,12.3-12.1,12.3c-11.7,0.1-23.4,0.1-35,0.1C8.1,63.1,3,57.8,2.9,50.5c0-11.7,0-23.3,0-35c0-2.5,0.6-5,2.1-7.1
			C7.7,4.7,11.6,3,16,3c11.3,0,22.5,0,33.8,0.1C58,3.2,62.4,9.4,62.4,15.6C62.4,21.4,62.4,27.2,62.4,33z"/>
		<linearGradient id="XMLID_56_" gradientUnits="userSpaceOnUse" x1="17.0021" y1="33.1112" x2="48.5112" y2="33.1112">
			<stop  offset="0" style="stop-color:#00A9EA"/>
			<stop  offset="1" style="stop-color:#2B398C"/>
		</linearGradient>
		<path id="XMLID_62_" class="st1" d="M32.7,49.1c8.8,0,15.8-7.2,15.8-16.1c0-8.6-7.2-15.9-15.9-15.8C24,17.2,17,24.3,17,33.1
			C17,42.3,24.4,49.1,32.7,49.1z M20,33.1c0-7,5.8-12.8,12.8-12.8c6.9,0,12.7,5.8,12.7,12.7c0,7.3-5.6,12.9-12.8,13
			C25.7,46,20,40.2,20,33.1z"/>
		<linearGradient id="XMLID_57_" gradientUnits="userSpaceOnUse" x1="48.7293" y1="12.8345" x2="56.6038" y2="12.8345">
			<stop  offset="0" style="stop-color:#00A9EA"/>
			<stop  offset="1" style="stop-color:#2B398C"/>
		</linearGradient>
		<path id="XMLID_61_" class="st2" d="M52.7,16.8c2.1,0,3.9-1.9,3.9-4c0-2.1-1.9-4-4-4c-2.1,0-3.9,1.9-3.9,4
			C48.7,15,50.5,16.8,52.7,16.8z"/>
	</g>
</g>
</svg>
