<?xml version="1.0" encoding="utf-8"?>
<!-- Generator: Adobe Illustrator 19.0.0, SVG Export Plug-In . SVG Version: 6.00 Build 0)  -->
<svg version="1.1" id="Layer_1" xmlns="http://www.w3.org/2000/svg" xmlns:xlink="http://www.w3.org/1999/xlink" x="0px" y="0px"
	 viewBox="0 0 84 60.8" style="enable-background:new 0 0 84 60.8;" xml:space="preserve">
<style type="text/css">
	.st0{fill:url(#SVGID_1_);}
	.st1{fill:url(#SVGID_2_);}
</style>
<linearGradient id="SVGID_1_" gradientUnits="userSpaceOnUse" x1="-915.4125" y1="4661.6313" x2="-914.4125" y2="4661.6313" gradientTransform="matrix(84.954 0 0 -84.954 77767.4531 396054.6563)">
	<stop  offset="0" style="stop-color:#00AAEB"/>
	<stop  offset="0.2524" style="stop-color:#0B8DD2"/>
	<stop  offset="1" style="stop-color:#2B398C"/>
</linearGradient>
<path class="st0" d="M1.6,1.5l0.9-1.2C3.1,0.7,3.5,1,4,1.4C15.9,10.6,27.9,19.8,39.8,29c0.9,0.7,1.6,1,2.2,1c0.6,0,1.3-0.2,2.2-0.9
	C56,19.8,68,10.6,79.9,1.4c0.5-0.4,0.9-0.7,1.5-1.1c0.4-0.3,1-0.4,1.5-0.1c0.5,0.2,0.8,0.7,0.8,1.3c0,1,0.1,1.8,0.1,2.6
	c0,0.4,0,0.9,0,1.3c0,8.1,0,16.2,0,24.4c0,6.5,0,12.9,0.1,19.4c0,0,0,0.2,0,0.2c0,6.3-3.7,11.5-9.7,11.5l-0.1,0l0.1-1.5l0,1.5
	c-10,0-19.9,0-29.9,0c-10.2,0-20.3,0-30.5,0c-1.4,0-2.8,0-4.3,0c-4.8,0.1-8.4-3-9.3-7.9C0,51.6,0,50.4,0,49.3C0,41.2,0,33,0,24.9
	c0-7,0-14,0-21c0-0.8,0.1-1.6,0.1-2.5c0-0.6,0.3-1,0.8-1.3S2,0,2.5,0.3L1.6,1.5l1.5,0.1c0,1-0.1,1.7-0.1,2.4c0,7,0,14,0,21
	C3,33,3,41.2,3,49.3c0,1,0,2.1,0.2,2.9c0.9,3.9,2.8,5.4,6.4,5.5c1.4,0,2.8,0,4.3,0c10.2,0,20.3,0,30.5,0c10,0,19.9,0,29.9,0l0,0
	l0,0.6l0-0.6l0,0l0,0.6l0-0.6c4.1,0,6.5-3.1,6.7-8.5l0-0.1c-0.1-6.5-0.1-12.9-0.1-19.4c0-8.1,0-16.2,0-24.4c0-0.4,0-0.9,0-1.3
	c0-0.7-0.1-1.5-0.1-2.5l1.5-0.1l0.9,1.2c-0.6,0.4-1.1,0.8-1.4,1.1C69.8,13,57.9,22.2,46,31.4c-1.2,1-2.6,1.6-4,1.6
	c-1.4,0-2.8-0.6-4-1.6C26,22.2,14.1,13,2.2,3.8C1.8,3.5,1.3,3.2,0.7,2.7L1.6,1.5l1.5,0.1L1.6,1.5z"/>
<linearGradient id="SVGID_2_" gradientUnits="userSpaceOnUse" x1="-915.4066" y1="4661.7476" x2="-914.4066" y2="4661.7476" gradientTransform="matrix(84.7146 0 0 -84.7146 77547.9063 394919.5938)">
	<stop  offset="0" style="stop-color:#00AAEB"/>
	<stop  offset="0.2524" style="stop-color:#0B8DD2"/>
	<stop  offset="1" style="stop-color:#2B398C"/>
</linearGradient>
<path class="st1" d="M82.3,3H1.6C0.8,3,0.1,2.3,0.1,1.5C0.1,0.7,0.8,0,1.6,0h80.7c0.8,0,1.5,0.7,1.5,1.5C83.8,2.3,83.1,3,82.3,3"/>
</svg>
