<?xml version="1.0" encoding="utf-8"?>
<!-- Generator: Adobe Illustrator 19.0.0, SVG Export Plug-In . SVG Version: 6.00 Build 0)  -->
<svg version="1.1" id="Layer_1" xmlns="http://www.w3.org/2000/svg" xmlns:xlink="http://www.w3.org/1999/xlink" x="0px" y="0px"
	 viewBox="0 0 82.5 82.3" style="enable-background:new 0 0 82.5 82.3;" xml:space="preserve">
<style type="text/css">
	.st0{fill:url(#SVGID_1_);}
</style>
<linearGradient id="SVGID_1_" gradientUnits="userSpaceOnUse" x1="-910.991" y1="4672.0591" x2="-909.991" y2="4672.0591" gradientTransform="matrix(83.4749 0 0 -83.4749 76044.3828 390040.7813)">
	<stop  offset="0" style="stop-color:#00AAEB"/>
	<stop  offset="0.2524" style="stop-color:#0B8DD2"/>
	<stop  offset="1" style="stop-color:#2B398C"/>
</linearGradient>
<path class="st0" d="M1.5,21.2L0,20.9c0.7-3.3,1.3-6.9,2.4-10.3c1.6-5,5.5-7.8,9.5-9.9C12.7,0.2,13.5,0,14.4,0
	c1.6,0,3.2,0.7,4.4,1.9c4.4,4.3,8.9,8.6,13.2,13c1.3,1.3,2.1,2.8,2.1,4.4c0,1.6-0.8,3.1-1.9,4.5c-1.8,2.2-3.6,4.4-5.6,6.4
	c-0.4,0.5-0.4,0.6-0.4,0.6c0,0,0,0.3,0.3,0.7c6,10.8,14.2,19.1,25.2,24.7c0,0,0,0,0,0c0.2,0,0.5-0.1,0.5-0.1
	c2.3-1.8,4.4-3.8,6.8-5.8c1.3-1.1,2.7-1.8,4.2-1.8c1.5,0,2.9,0.7,4.1,1.9c4.7,4.5,9.2,9.2,13.7,14c1,1.1,1.5,2.5,1.5,3.8
	c0,1.3-0.5,2.6-1.1,3.8c-4.5,7.9-11.9,10.4-19.5,10.3c-1.1,0-2.2,0-3.3-0.1c-9.3-0.7-17.1-5.2-24-10.7C24.2,63,14.7,53.6,7.3,42.3
	C3.3,36,0.4,29.1,0,21.3l0-0.2l0-0.2L1.5,21.2L3,21.1c0.4,7.2,3,13.6,6.8,19.5c7.2,11,16.4,20.2,26.6,28.4
	c6.6,5.3,13.9,9.5,22.3,10.1c1,0.1,2.1,0.1,3.1,0.1c7.1-0.1,12.9-2,16.9-8.8c0.5-0.9,0.7-1.7,0.7-2.3c0-0.6-0.2-1.2-0.7-1.8
	c-4.4-4.7-8.9-9.4-13.5-13.8c-0.9-0.8-1.5-1-2-1.1c-0.5,0-1.3,0.3-2.3,1.1c-2.2,1.8-4.4,3.9-6.8,5.8c-0.8,0.6-1.6,0.7-2.4,0.8
	c-0.4,0-0.9,0-1.4-0.3C38.8,53,30.1,44.2,23.8,32.9c-0.4-0.6-0.6-1.3-0.6-2.1c0-1.1,0.6-2,1.2-2.7c1.9-2,3.7-4.1,5.5-6.3
	c0.9-1.1,1.2-1.9,1.2-2.5c0-0.6-0.3-1.3-1.2-2.3c-4.3-4.4-8.8-8.6-13.2-12.9C16,3.3,15.1,3,14.4,3c-0.4,0-0.8,0.1-1.1,0.3
	c-3.7,2-6.8,4.4-8,8.2C4.3,14.6,3.7,18,3,21.5L1.5,21.2L3,21.1L1.5,21.2z"/>
</svg>
