<?xml version="1.0" encoding="utf-8"?>
<!-- Generator: Adobe Illustrator 19.0.0, SVG Export Plug-In . SVG Version: 6.00 Build 0)  -->
<svg version="1.1" id="Layer_1" xmlns="http://www.w3.org/2000/svg" xmlns:xlink="http://www.w3.org/1999/xlink" x="0px" y="0px"
	 viewBox="0 0 84.3 69.5" style="enable-background:new 0 0 84.3 69.5;" xml:space="preserve">
<style type="text/css">
	.st0{fill:url(#SVGID_1_);}
	.st1{fill:url(#SVGID_2_);}
</style>
<linearGradient id="SVGID_1_" gradientUnits="userSpaceOnUse" x1="-919.04" y1="4665.7026" x2="-918.04" y2="4665.7026" gradientTransform="matrix(85.2873 0 0 -85.2873 78381.9297 397959.9063)">
	<stop  offset="0" style="stop-color:#00AAEB"/>
	<stop  offset="0.2524" style="stop-color:#0B8DD2"/>
	<stop  offset="1" style="stop-color:#2B398C"/>
</linearGradient>
<path class="st0" d="M1,60.7l0.8-0.6c0.2,0.2,0.3,0.4,0.3,0.5l-0.3,0.2L2,60.5l0.1,0.1l-0.3,0.2L2,60.5c0.3,0.2,0.6,0.4,0.8,0.5
	c7.5,4.3,15.4,6.5,23.7,6.5c2.3,0,4.6-0.2,6.9-0.5c15-2.1,26.1-9.7,33.8-22.7c4.6-7.6,6.7-16,6.8-24.9c0-1.5,0.7-2.6,1.7-3.4
	c1.8-1.6,3.5-3.3,5.2-5.1c0.5-0.5,0.9-1.2,1.6-2.2l0.8,0.6l0.3,1c-3,0.8-5.7,1.6-8.4,2.3c-0.5,0.1-1-0.1-1.2-0.6l-0.2-0.4l0.3-1.1
	c2.8-2.2,4.9-4.6,5.8-8l1,0.3l0.2,1c-0.4,0.1-0.8,0.3-1.4,0.5c-2.5,0.9-4.9,1.8-7.4,2.8c-0.4,0.2-0.8,0.2-1.2,0.2
	c-1,0-1.8-0.5-2.4-1.1C65.6,3.4,62.1,2,58.2,2c-0.5,0-1.1,0-1.6,0.1C47.9,3,41.9,9.8,41.9,18.3c0,0.6,0,1.2,0.1,1.8
	c0,0.3,0,0.5,0,0.8c0,0.9-1,1.9-1.9,1.9c-0.3,0-0.5,0-0.8-0.1C26.9,21.4,16.3,16.2,7.7,7c-0.6-0.7-1.2-1.3-2-2.1l0.7-0.7l0.8,0.6
	C5.7,7.2,5.1,9.5,5,12.2c0,0.2,0,0.4,0,0.6c0,5.3,2.2,9.5,6.5,13l0.2,1.3c-0.1,0.1-0.1,0.3-0.2,0.4l-1.1,0.5C8.2,27.2,6,26.6,3.6,26
	l0.3-1l1-0.1C5.4,33,9.3,37.8,16.7,40.6c0.5,0.2,0.8,0.8,0.6,1.3c0,0.1-0.1,0.3-0.1,0.4l-0.9,0.7H9.8v-1l0.9-0.4
	c2.7,7,7.4,10.3,14.7,11.3c0.4,0.1,0.7,0.3,0.8,0.7s0,0.8-0.4,1.1c-6.6,4.8-13.7,7.1-21.5,7.1c-1.2,0-2.3-0.1-3.5-0.2L1,60.7
	l0.8-0.6L1,60.7l0.1-1c1.1,0.1,2.3,0.1,3.4,0.1c7.4,0,14-2.1,20.3-6.7l0.6,0.8l-0.1,1c-7.9-1-13.4-5-16.3-12.6
	C8.8,42,8.8,41.6,9,41.4c0.2-0.3,0.5-0.4,0.8-0.4h6.4v1l-0.9-0.3c0-0.1,0.1-0.3,0.1-0.4l0.9,0.3l-0.3,0.9C8,39.6,3.3,33.8,2.9,25
	c0-0.3,0.1-0.6,0.4-0.8C3.5,24,3.9,23.9,4.2,24c2.4,0.7,4.6,1.3,6.8,1.9l-0.3,1l-0.9-0.5c0.1-0.1,0.1-0.2,0.2-0.4l0.9,0.5l-0.6,0.8
	C5.6,23.5,3,18.7,3,12.7c0-0.2,0-0.4,0-0.6c0.1-2.9,0.8-5.7,2.6-8.4c0.2-0.3,0.4-0.4,0.7-0.4c0.3,0,0.6,0.1,0.8,0.3
	c0.7,0.8,1.4,1.4,2,2.1c8.2,8.8,18.3,13.8,30.3,15.1c0.3,0,0.5,0,0.6,0v0.1l-0.1,0l0.1-0.1v0.1l-0.1,0c0-0.1,0-0.3,0-0.6
	c-0.1-0.7-0.1-1.4-0.1-2c0-9.5,6.8-17.2,16.5-18.2C57,0,57.6,0,58.2,0c4.4,0,8.4,1.7,11.7,4.6C70.4,5,70.7,5.2,71,5.2
	c0.1,0,0.3,0,0.5-0.1c2.5-0.9,4.9-1.8,7.4-2.8c0.4-0.1,1-0.5,1.8-0.6C81,1.6,81.4,1.7,81.6,2s0.3,0.6,0.2,0.9
	c-1.1,3.9-3.5,6.7-6.5,9l-0.6-0.8l0.9-0.3l0.2,0.4l-0.9,0.3l-0.3-1C77.3,9.9,80,9.1,83,8.3c0.4-0.1,0.8,0,1.1,0.4
	c0.2,0.3,0.2,0.8,0,1.2c-0.6,0.8-1,1.7-1.8,2.4c-1.7,1.8-3.4,3.6-5.3,5.2c-0.8,0.7-1,1-1,2c-0.1,9.2-2.3,18-7,25.9
	c-8,13.4-19.8,21.5-35.3,23.6c-2.4,0.3-4.8,0.5-7.2,0.5c-8.7,0-16.9-2.3-24.7-6.7c-0.3-0.2-0.7-0.4-1-0.7c-0.5-0.4-0.4-0.5-0.7-0.9
	c-0.2-0.3-0.2-0.7,0-1.1c0.2-0.3,0.6-0.5,1-0.5L1,60.7z"/>
<linearGradient id="SVGID_2_" gradientUnits="userSpaceOnUse" x1="-919.04" y1="4665.7026" x2="-918.04" y2="4665.7026" gradientTransform="matrix(85.2873 0 0 -85.2873 78381.9297 397959.9063)">
	<stop  offset="0" style="stop-color:#00AAEB"/>
	<stop  offset="0.2524" style="stop-color:#0B8DD2"/>
	<stop  offset="1" style="stop-color:#2B398C"/>
</linearGradient>
<path class="st1" d="M1,60.7l0.1-1c1.1,0.1,2.3,0.1,3.4,0.1c7.4,0,14-2.1,20.3-6.7l0.6,0.8l-0.1,1c-7.9-1-13.4-5-16.3-12.6
	C8.8,42,8.8,41.6,9,41.4c0.2-0.3,0.5-0.4,0.8-0.4h6.4v1l-0.9-0.3c0-0.1,0.1-0.3,0.1-0.4l0.9,0.3l-0.3,0.9C8,39.6,3.3,33.8,2.9,25
	c0-0.3,0.1-0.6,0.4-0.8C3.5,24,3.9,23.9,4.2,24c2.4,0.7,4.6,1.3,6.8,1.9l-0.3,1l-0.9-0.5c0.1-0.1,0.1-0.2,0.2-0.4l0.9,0.5l-0.6,0.8
	C5.6,23.5,3,18.7,3,12.7c0-0.2,0-0.4,0-0.6c0.1-2.9,0.8-5.7,2.6-8.4c0.2-0.3,0.4-0.4,0.7-0.4c0.3,0,0.6,0.1,0.8,0.3
	c0.7,0.8,1.4,1.4,2,2.1c8.2,8.8,18.3,13.8,30.3,15.1c0.3,0,0.5,0,0.6,0v0.1l-0.1,0l0.1-0.1v0.1l-0.1,0c0-0.1,0-0.3,0-0.6
	c-0.1-0.7-0.1-1.4-0.1-2c0-9.5,6.8-17.2,16.5-18.2C57,0,57.6,0,58.2,0c4.4,0,8.4,1.7,11.7,4.6C70.4,5,70.7,5.2,71,5.2
	c0.1,0,0.3,0,0.5-0.1c2.5-0.9,4.9-1.8,7.4-2.8c0.4-0.1,1-0.5,1.8-0.6C81,1.6,81.4,1.7,81.6,2s0.3,0.6,0.2,0.9
	c-1.1,3.9-3.5,6.7-6.5,9l-0.6-0.8l0.9-0.3l0.2,0.4l-0.9,0.3l-0.3-1C77.3,9.9,80,9.1,83,8.3c0.4-0.1,0.8,0,1.1,0.4
	c0.2,0.3,0.2,0.8,0,1.2c-0.6,0.8-1,1.7-1.8,2.4c-1.7,1.8-3.4,3.6-5.3,5.2c-0.8,0.7-1,1-1,2c-0.1,9.2-2.3,18-7,25.9
	c-8,13.4-19.8,21.5-35.3,23.6c-2.4,0.3-4.8,0.5-7.2,0.5c-8.7,0-16.9-2.3-24.7-6.7c-0.3-0.2-0.7-0.4-1-0.7c-0.5-0.4-0.4-0.5-0.7-0.9
	c-0.2-0.3-0.2-0.7,0-1.1c0.2-0.3,0.6-0.5,1-0.5L1,60.7l0.8-0.6c0.2,0.2,0.3,0.4,0.3,0.5l-0.3,0.2L2,60.5l0.1,0.1l-0.3,0.2L2,60.5
	c0.3,0.2,0.6,0.4,0.8,0.5c7.5,4.3,15.4,6.5,23.7,6.5c2.3,0,4.6-0.2,6.9-0.5c15-2.1,26.1-9.7,33.8-22.7c4.6-7.6,6.7-16,6.8-24.9
	c0-1.5,0.7-2.6,1.7-3.4c1.8-1.6,3.5-3.3,5.2-5.1c0.5-0.5,0.9-1.2,1.6-2.2l0.8,0.6l0.3,1c-3,0.8-5.7,1.6-8.4,2.3
	c-0.5,0.1-1-0.1-1.2-0.6l-0.2-0.4l0.3-1.1c2.8-2.2,4.9-4.6,5.8-8l1,0.3l0.2,1c-0.4,0.1-0.8,0.3-1.4,0.5c-2.5,0.9-4.9,1.8-7.4,2.8
	c-0.4,0.2-0.8,0.2-1.2,0.2c-1,0-1.8-0.5-2.4-1.1C65.6,3.4,62.1,2,58.2,2c-0.5,0-1.1,0-1.6,0.1C47.9,3,41.9,9.8,41.9,18.3
	c0,0.6,0,1.2,0.1,1.8c0,0.3,0,0.5,0,0.8c0,0.9-1,1.9-1.9,1.9c-0.3,0-0.5,0-0.8-0.1C26.9,21.4,16.3,16.2,7.7,7
	c-0.6-0.7-1.2-1.3-2-2.1l0.7-0.7l0.8,0.6C5.7,7.2,5.1,9.5,5,12.2c0,0.2,0,0.4,0,0.6c0,5.3,2.2,9.5,6.5,13l0.2,1.3
	c-0.1,0.1-0.1,0.3-0.2,0.4l-1.1,0.5C8.2,27.2,6,26.6,3.6,26l0.3-1l1-0.1C5.4,33,9.3,37.8,16.7,40.6c0.5,0.2,0.8,0.8,0.6,1.3
	c0,0.1-0.1,0.3-0.1,0.4l-0.9,0.7H9.8v-1l0.9-0.4c2.7,7,7.4,10.3,14.7,11.3c0.4,0.1,0.7,0.3,0.8,0.7s0,0.8-0.4,1.1
	c-6.6,4.8-13.7,7.1-21.5,7.1c-1.2,0-2.3-0.1-3.5-0.2L1,60.7l0.8-0.6L1,60.7z"/>
</svg>
