<?xml version="1.0" encoding="iso-8859-1"?>
<!-- Uploaded to: SVG Repo, www.svgrepo.com, Generator: SVG Repo Mixer Tools -->
<svg stroke="#000000" stroke-width="12"  fill="none" height="850px" width="800px" version="1.1" id="Layer_1" xmlns="http://www.w3.org/2000/svg" xmlns:xlink="http://www.w3.org/1999/xlink" 
	 viewBox="0 0 511.991 511.991" xml:space="preserve">
<g>
	<g>
		<path d="M460.18,252.791c-16.768-41.531-58.931-218.854-59.349-220.637c-0.529-2.244-1.946-4.164-3.908-5.35l-42.667-25.6
			c-0.162-0.094-0.35-0.137-0.521-0.222c-0.188-0.094-0.384-0.171-0.589-0.256c-0.819-0.35-1.672-0.572-2.543-0.648
			c-0.094-0.009-0.162-0.06-0.247-0.06c-0.034-0.009-0.068,0.009-0.102,0.009c-0.998-0.043-1.98,0.102-2.944,0.41
			c-0.179,0.051-0.341,0.137-0.512,0.205c-0.384,0.145-0.777,0.247-1.143,0.461c-0.358,0.196-0.64,0.478-0.964,0.725
			c-0.154,0.119-0.316,0.222-0.461,0.35c-0.725,0.64-1.348,1.374-1.809,2.21c-0.051,0.094-0.077,0.205-0.128,0.307
			c-0.393,0.777-0.64,1.604-0.785,2.475c-0.017,0.137-0.102,0.247-0.119,0.384c-0.333,2.833-8.977,69.24-85.393,69.24
			s-85.06-66.406-85.385-69.214c-0.017-0.154-0.111-0.282-0.137-0.435c-0.12-0.76-0.341-1.476-0.657-2.159
			c-0.102-0.23-0.162-0.469-0.282-0.683c-0.418-0.734-0.956-1.391-1.579-1.98c-0.282-0.265-0.606-0.469-0.922-0.7
			c-0.239-0.162-0.444-0.375-0.7-0.521c-0.247-0.145-0.521-0.205-0.785-0.324c-0.316-0.137-0.614-0.282-0.956-0.384
			c-0.913-0.273-1.852-0.41-2.807-0.375C161.744,0.026,161.701,0,161.65,0c-0.119,0.009-0.222,0.077-0.35,0.094
			c-0.811,0.077-1.604,0.282-2.372,0.597c-0.247,0.102-0.478,0.188-0.708,0.307c-0.154,0.077-0.333,0.111-0.486,0.205l-42.667,25.6
			c-1.963,1.186-3.379,3.106-3.908,5.35c-0.418,1.783-42.581,179.106-59.349,220.638c-18.654,46.217-5.359,85.282,9.097,109.918
			c15.343,26.155,32.956,65.792,32.956,140.749c0,4.71,3.814,8.533,8.533,8.533h307.2c4.719,0,8.533-3.823,8.533-8.533
			c0-74.957,17.613-114.594,32.956-140.749C465.539,338.074,478.834,299.008,460.18,252.791z M205.648,219.418
			c-23.219-22.144-34.987-52.907-34.987-91.426v-10.351c28.305,31.164,43.358,67.942,44.996,109.67
			C212.142,224.998,208.771,222.404,205.648,219.418z M306.341,219.417c-3.123,2.987-6.494,5.581-10.01,7.893
			c1.638-41.728,16.691-78.507,44.996-109.67v10.351h0.001C341.328,166.51,329.561,197.273,306.341,219.417z M341.328,93.346
			c-41.523,38.861-62.447,86.673-62.276,142.216c-0.393,0.128-0.785,0.273-1.186,0.401c-2.918,0.913-5.879,1.621-8.875,2.159
			c-1.28,0.23-2.569,0.375-3.857,0.529c-2.065,0.265-4.139,0.418-6.212,0.503c-1.946,0.077-3.891,0.077-5.837,0
			c-2.091-0.085-4.181-0.239-6.255-0.503c-1.28-0.154-2.551-0.299-3.814-0.521c-3.012-0.546-5.99-1.263-8.926-2.176
			c-0.393-0.12-0.768-0.265-1.152-0.384c0.171-55.552-20.753-103.364-62.276-142.225V52.378
			c14.14,20.855,39.671,41.481,85.333,41.481s71.194-20.625,85.333-41.481V93.346z"/>
	</g>
</g>
</svg>
