<?xml version="1.0" encoding="iso-8859-1"?>
<!-- Uploaded to: SVG Repo, www.svgrepo.com, Generator: SVG Repo Mixer Tools -->
<!DOCTYPE svg PUBLIC "-//W3C//DTD SVG 1.1//EN" "http://www.w3.org/Graphics/SVG/1.1/DTD/svg11.dtd">
<svg stroke="#fff" stroke-width="12" fill="#000" height="820px" width="800px" version="1.1" id="Capa_1" xmlns="http://www.w3.org/2000/svg" xmlns:xlink="http://www.w3.org/1999/xlink" 
	 viewBox="0 0 297 297" xml:space="preserve">
<path d="M239.262,236.702L227.687,63.078c-1.636-24.537-21.328-43.984-45.522-45.696v-7.363C182.164,4.486,177.679,0,172.146,0
	h-68.98c-5.532,0-10.018,4.486-10.018,10.018v7.363c-24.194,1.713-43.886,21.159-45.521,45.696L32.814,285.271
	c-0.369,5.521,3.809,10.294,9.329,10.662c5.538,0.375,10.295-3.81,10.662-9.329l3.975-59.628h161.753l0.858,12.872
	c-9.507,5.144-15.98,15.207-15.98,26.755c0,16.762,13.637,30.399,30.399,30.399s30.399-13.637,30.399-30.399
	C264.209,251.701,253.43,239.28,239.262,236.702z M113.184,20.036h48.944V34.49h-48.944V20.036z M93.148,37.497v7.011
	c0,5.532,4.486,10.018,10.018,10.018h68.98c5.532,0,10.018-4.486,10.018-10.018v-7.011c13.667,1.645,24.595,12.871,25.531,26.913
	l1.454,21.815H66.164l1.454-21.815C68.555,50.369,79.482,39.143,93.148,37.497z M58.116,206.939l6.712-100.678h145.658
	l6.712,100.678H58.116z M233.81,276.964c-5.713,0-10.362-4.649-10.362-10.362s4.649-10.362,10.362-10.362
	c5.713,0,10.362,4.649,10.362,10.362S239.523,276.964,233.81,276.964z"/>
</svg>
