<svg id="Layer_1" enable-background="new 0 0 511.997 511.997" height="512" viewBox="0 0 511.997 511.997" width="512" xmlns="http://www.w3.org/2000/svg"><g><path d="m393.912 306.002c-4.168-.215-7.656 2.985-7.861 7.121-1.931 39.106-17.407 144.723-19.166 157.64-2.035 14.956-14.938 26.233-30.012 26.233h-161.111c-15.015 0-27.904-11.193-29.982-26.037-1.803-12.869-20.722-137.361-19.795-184.588.457-23.246 7.188-45.603 18.82-65.026h223.908c9.066 15.378 15.025 32.636 17.129 50.777 1.094 9.427 16.029 8.02 14.9-1.729-5.493-47.365-35.243-90.15-77.517-112.104 1.783-3.436 2.797-7.333 2.797-11.463v-28.728c0-13.774-11.207-24.981-24.981-24.981h-10.592v-39.591h13.134c25.458 0 27.564-32.337 11.582-46.034-6.905-5.918-16.017-8.516-25.011-7.124l-36.396 5.636c-9.583 1.486-7.292 16.289 2.295 14.824l36.396-5.636c4.652-.725 9.377.622 12.954 3.688 5.177 4.436 9.81 19.646-1.82 19.646h-119.373c2.298-4.391 6.579-7.594 11.81-8.403l22.655-3.508c9.583-1.484 7.288-16.312-2.295-14.824l-22.655 3.508c-15.266 2.364-26.345 15.286-26.345 30.728 0 4.143 3.357 7.5 7.5 7.5h47.293v39.592h-10.592c-13.774 0-24.981 11.207-24.981 24.981v28.728c0 4.314 1.1 8.376 3.033 11.921-46.645 24.757-77.607 74.437-78.644 127.329-.953 48.509 18.146 174.181 19.936 186.963 3.11 22.209 22.387 38.957 44.838 38.957h161.111c22.54 0 41.832-16.856 44.875-39.21 1.748-12.841 17.318-119.096 19.285-158.923.203-4.139-2.985-7.657-7.122-7.863zm-156.739-251.802h38.275v38.918h-38.275zm-35.573 63.899c0-5.504 4.478-9.981 9.981-9.981h89.459c5.504 0 9.981 4.478 9.981 9.981v28.728c0 5.504-4.478 9.981-9.981 9.981h-89.459c-5.504 0-9.981-4.478-9.981-9.981zm-.229 51.518c3.12 1.403 6.574 2.191 10.21 2.191h89.459c3.85 0 7.499-.877 10.759-2.439 18.397 8.657 34.269 21.438 46.605 36.976h-203.169c12.267-15.308 27.938-27.989 46.136-36.728z"/><path d="m155.311 261.497c-9.652 0-9.668 15 0 15 9.652 0 9.667-15 0-15z"/><path d="m203.311 234.497c-9.652 0-9.668 15 0 15 9.652 0 9.667-15 0-15z"/><path d="m354.311 238.497c-9.652 0-9.668 15 0 15 9.652 0 9.667-15 0-15z"/><path d="m288.311 482.497c9.652 0 9.668-15 0-15-9.652 0-9.668 15 0 15z"/><path d="m340.311 449.497c9.652 0 9.668-15 0-15-9.652 0-9.668 15 0 15z"/><path d="m183.131 464.559c9.652 0 9.668-15 0-15-9.651 0-9.667 15 0 15z"/><path d="m256.311 253.497c-53.486 0-97 43.514-97 97s43.514 97 97 97 97-43.514 97-97-43.514-97-97-97zm0 179c-45.215 0-82-36.785-82-82s36.785-82 82-82 82 36.785 82 82-36.785 82-82 82z"/><path d="m302.626 326.965h-22.737v-22.651c0-4.143-3.357-7.5-7.5-7.5h-32.156c-4.143 0-7.5 3.357-7.5 7.5v22.651h-22.737c-4.143 0-7.5 3.357-7.5 7.5v32.063c0 4.143 3.357 7.5 7.5 7.5h22.737v22.651c0 4.143 3.357 7.5 7.5 7.5h32.156c4.143 0 7.5-3.357 7.5-7.5v-22.651h22.737c4.143 0 7.5-3.357 7.5-7.5v-32.063c0-4.142-3.357-7.5-7.5-7.5zm-7.5 32.063h-22.737c-4.143 0-7.5 3.357-7.5 7.5v22.651h-17.156v-22.651c0-4.143-3.357-7.5-7.5-7.5h-22.737v-17.063h22.737c4.143 0 7.5-3.357 7.5-7.5v-22.651h17.156v22.651c0 4.143 3.357 7.5 7.5 7.5h22.737z"/></g></svg>