<?xml version="1.0" encoding="iso-8859-1"?>
<!-- Uploaded to: SVG Repo, www.svgrepo.com, Generator: SVG Repo Mixer Tools -->
<svg stroke="#fff" stroke-width="8" fill="#000" height="850px" width="800px" version="1.1" id="Layer_1" xmlns="http://www.w3.org/2000/svg" xmlns:xlink="http://www.w3.org/1999/xlink" 
	 viewBox="0 0 512 512" xml:space="preserve">
<g>
	<g>
		<g>
			<path d="M417.444,0.899c-13.964-2.586-28.131,0.452-39.895,8.545c-11.764,8.092-19.665,20.239-22.246,34.201l-20.547,111.102
				H199.422c-17.644,0-31.999,14.357-31.999,32.004v21.333c0,5.891,4.776,10.667,10.667,10.667h144.829l-7.891,42.665H114.914
				c-35.287,0-63.995,28.71-63.995,64.006c0,35.289,28.708,63.998,63.995,63.998h192v58.583H179.817c-17.645,0-32,14.355-32,32
				v21.331c0,5.891,4.776,10.667,10.667,10.667h244.429c5.892,0,10.667-4.777,10.667-10.667V325.422c0-0.001,0-0.001,0-0.002
				c0-0.001,0-0.003,0-0.004c0-2.617-0.176-5.191-0.483-7.726l47.089-254.647C465.533,34.123,446.359,6.246,417.444,0.899z
				 M188.758,197.415V186.75c0-5.883,4.783-10.669,10.664-10.669h144.399c0.012,0,0.022,0,0.032,0h17.133
				c5.881,0,10.664,4.786,10.664,10.669c0,5.881-4.783,10.665-10.664,10.665h-25.391c-0.035,0-0.069-0.001-0.104,0H188.758z
				 M392.247,490.666H169.152v-10.663c0-5.881,4.784-10.665,10.665-10.665h137.764c5.892,0,10.667-4.777,10.667-10.667v-69.25
				h21.333c16.379,0,31.333-6.191,42.665-16.347V490.666z M349.581,368.085H114.914c-23.523,0-42.661-19.138-42.661-42.669
				c0-23.526,19.137-42.665,42.66-42.665h208.958c0.015,0,0.03,0.002,0.046,0.002c0.015,0,0.031-0.002,0.046-0.002h25.619
				c23.526,0,42.665,19.139,42.665,42.672C392.247,348.947,373.107,368.085,349.581,368.085z M439.209,59.163l-41.457,224.186
				c-11.741-13.427-28.975-21.933-48.17-21.933h-12.856l7.89-42.665h16.371c17.644,0,31.999-14.355,31.999-32
				c0-17.647-14.355-32.004-31.999-32.004h-4.535l19.828-107.222c1.546-8.359,6.289-15.641,13.359-20.503
				c7.069-4.863,15.567-6.69,23.925-5.144C430.912,25.086,442.415,41.812,439.209,59.163z"/>
			<path d="M225.139,314.754h-0.256c-5.892,0-10.667,4.777-10.667,10.667c0,5.891,4.776,10.667,10.667,10.667h0.256
				c5.891,0,10.667-4.777,10.667-10.667C235.806,319.531,231.029,314.754,225.139,314.754z"/>
			<path d="M194.24,314.748h-79.326c-5.892,0-10.667,4.777-10.667,10.667c0,5.891,4.776,10.667,10.667,10.667h79.326
				c5.892,0,10.667-4.777,10.667-10.667C204.907,319.525,200.131,314.748,194.24,314.748z"/>
		</g>
	</g>
</g>
</svg>
