<svg id="Capa_1" enable-background="new 0 0 511.5 511.5" height="512" viewBox="0 0 511.5 511.5" width="512" xmlns="http://www.w3.org/2000/svg"><g><path d="m328.604 50.496c12.854 16.402 19.646 36.114 19.646 57.004v30.366l-11.608-21.465c-8.808-16.284-25.781-26.401-44.294-26.401h-69.886v15h69.886c12.999 0 24.916 7.103 31.101 18.538l21.7 40.125-28.718 11.487c-7.345-2.652-33.037-11.15-60.681-11.15-27.643 0-53.336 8.498-60.68 11.15l-31.82-12.728v-54.922c0-.836.013-1.669.035-2.5h44.177v-15h-42.544c8.204-42.665 45.81-75 90.832-75 23.722 0 46.278 8.968 63.513 25.251l10.301-10.903c-20.031-18.925-46.245-29.348-73.814-29.348-59.276 0-107.5 48.224-107.5 107.5v60c0 38.142 19.97 71.704 50 90.791v35.709h-62.499c-48.248 0-87.5 39.25-87.5 87.496v55.355h15v-55.355c0-39.975 32.523-72.496 72.5-72.496h66.893l45.606 45.606v156.894h15v-156.894l45.607-45.606h47.402v-15h-43.009v-35.71c30.03-19.086 50-52.648 50-90.79v-60c.001-24.277-7.896-47.188-22.839-66.256zm-140.354 180.178c-13.055-13.94-21.854-31.908-24.302-51.817l24.302 9.721zm110 67.719-42.5 42.5-42.5-42.5v-32.16c13.043 5.636 27.412 8.766 42.5 8.766s29.457-3.13 42.5-8.766zm10-54.78c-14.925 10.327-33.017 16.387-52.5 16.387s-37.575-6.06-52.5-16.387v-55.415c9.186-3.054 30.414-9.199 52.5-9.199 22.014 0 43.296 6.152 52.5 9.204zm15-12.939v-42.096l24.302-9.721c-2.448 19.908-11.247 37.877-24.302 51.817z"/><path d="m463.249 381.496c0-48.246-39.252-87.496-87.5-87.496h-4.49v15h4.49c39.977 0 72.5 32.521 72.5 72.496l.001 130.004h15z"/><path d="m48.25 511.486 15-.296v-59.321h-15z"/><path d="m376.25 410.5h15v101h-15z"/><path d="m135.25 468h15.5v-15h-15.5v-42.5h-15v101h15v-13.5h28.5v-15h-28.5z"/><path d="m220.75 196h70v15h-70z"/><path d="m220.75 226h70v15h-70z"/><path d="m337.75 369h-36c-13.51 0-24.5 10.991-24.5 24.5s10.99 24.5 24.5 24.5h36c13.51 0 24.5-10.991 24.5-24.5s-10.99-24.5-24.5-24.5zm0 34h-36c-5.238 0-9.5-4.262-9.5-9.5s4.262-9.5 9.5-9.5h36c5.238 0 9.5 4.262 9.5 9.5s-4.262 9.5-9.5 9.5z"/><path d="m278.25 478.5h15v15h-15z"/><path d="m278.25 439.5h15v15h-15z"/><path d="m178.75 483h15v15h-15z"/></g></svg>