<svg id="Layer_1" enable-background="new 0 0 512 512" height="512" viewBox="0 0 512 512" width="512" xmlns="http://www.w3.org/2000/svg"><g><path d="m494.108 186.601c-11.371-8.807-25.877-11.796-39.803-8.199l-1.172.303c-7.516 1.941-14.196 5.665-19.634 10.649.012-13.111.02-21.945.02-22.707 0-10.38-8.445-18.826-18.826-18.826h-13.287c-4.993 0-11.604-.705-18.68-1.989l-.6-.114c-13.815-2.623-31.07-7.918-38.067-14.916-18.255-18.255-42.383-28.309-67.939-28.308h-40.371c-25.554 0-49.681 10.053-67.935 28.308-6.997 6.997-24.252 12.292-38.068 14.916l-.557.106c-7.092 1.289-13.721 1.997-18.726 1.997h-13.284c-10.381 0-18.826 8.445-18.826 18.826 0 .76.008 9.544.02 22.59-5.415-4.925-12.049-8.607-19.506-10.532l-1.172-.303c-13.926-3.596-28.433-.607-39.803 8.199-11.371 8.807-17.892 22.107-17.892 36.49 0 15.742 7.896 30.237 21.121 38.775l57.358 37.03.023 23.205c0 .109.002.217.005.324h-.004v.073c.018 5.002 1.975 9.703 5.514 13.241l19.906 19.907c6.573 6.573 14.313 12.831 23.009 18.605.064.044.129.087.195.129 33.777 22.323 80.716 35.125 128.809 35.125 48.087 0 95.019-12.798 128.798-35.118.073-.047.146-.095.217-.144 8.689-5.769 16.426-12.026 22.996-18.597l19.905-19.905c3.559-3.556 5.518-8.285 5.516-13.315l-.004-.001.003-.116c.001-.069.002-.138.002-.208l.023-23.122 57.486-37.113c13.226-8.538 21.122-23.034 21.122-38.775 0-14.383-6.521-27.683-17.892-36.49zm-464.851 62.663c-8.927-5.763-14.257-15.548-14.257-26.173 0-9.708 4.402-18.686 12.077-24.63 5.545-4.295 12.194-6.54 19.003-6.54 2.615 0 5.255.331 7.863 1.005l1.173.303c13.038 3.367 22.349 14.685 23.286 27.954l.059 59.848zm389.112 73.164c0 .001 0 .001 0 0 0 1.021-.397 1.98-1.121 2.704l-19.907 19.907c-2.8 2.801-5.85 5.545-9.127 8.216v-21.628c0-4.142-3.358-7.5-7.5-7.5s-7.5 3.358-7.5 7.5v32.333c-31.127 19.447-73.595 30.544-117.278 30.544-43.684 0-86.153-11.098-117.278-30.544v-147.678c0-4.142-3.358-7.5-7.5-7.5s-7.5 3.358-7.5 7.5v136.973c-3.277-2.671-6.327-5.415-9.127-8.216l-19.908-19.908c-.722-.722-1.12-1.681-1.12-2.701 0 0 0 0 0-.001l-.15-155.781c0-2.109 1.716-3.826 3.826-3.826h13.287c3.865 0 8.332-.325 13.192-.954v19.539c0 4.142 3.358 7.5 7.5 7.5s7.5-3.358 7.5-7.5v-22.222c12.669-2.864 30.312-8.325 39.762-17.775 15.422-15.422 35.783-23.915 57.332-23.914h40.368c21.549-.001 41.91 8.492 57.332 23.914 9.45 9.45 27.093 14.911 39.762 17.775v137.983c0 4.142 3.358 7.5 7.5 7.5s7.5-3.358 7.5-7.5v-135.3c4.86.628 9.326.954 13.19.954h13.289c2.11 0 3.826 1.716 3.826 3.826 0 4.453-.142 152.237-.15 155.78zm64.374-73.164-49.224 31.779v-57.65c0-14.208 9.608-26.612 23.364-30.165l1.172-.303c2.609-.674 5.248-1.005 7.863-1.005 6.809 0 13.459 2.245 19.003 6.54 7.675 5.945 12.077 14.922 12.077 24.63.002 10.626-5.328 20.411-14.255 26.174z"/><path d="m304.945 176.731c-12.169-.643-23.293-3.439-31.323-7.874-6.473-3.575-10.186-7.833-10.186-11.684 0-4.142-3.358-7.5-7.5-7.5s-7.5 3.358-7.5 7.5c0 3.85-3.713 8.108-10.186 11.684-8.03 4.435-19.154 7.231-31.323 7.874-7.228.382-12.889 6.361-12.889 13.613v63.429c0 14.778 10.051 30.716 29.874 47.373 13.972 11.74 27.759 19.562 28.339 19.889 1.144.646 2.414.968 3.685.968s2.542-.323 3.685-.968c.58-.327 14.367-8.148 28.339-19.889 19.823-16.656 29.875-32.595 29.875-47.373v-63.429c-.001-7.252-5.663-13.231-12.89-13.613zm-2.111 77.042c0 9.818-8.651 22.514-24.359 35.75-8.805 7.418-17.731 13.261-22.563 16.252-15.338-9.438-46.874-32.781-46.874-52.002v-62.139c20.749-1.331 37.701-7.986 46.898-17.51 9.197 9.524 26.149 16.179 46.898 17.51z"/><path d="m248.41 220.561v10.557h-10.557c-4.142 0-7.5 3.358-7.5 7.5s3.358 7.5 7.5 7.5h10.557v10.557c0 4.142 3.358 7.5 7.5 7.5s7.5-3.358 7.5-7.5v-10.557h10.557c4.142 0 7.5-3.358 7.5-7.5s-3.358-7.5-7.5-7.5h-10.557v-10.557c0-4.142-3.358-7.5-7.5-7.5s-7.5 3.358-7.5 7.5z"/><path d="m279.526 349.811h-47.637c-4.142 0-7.5 3.358-7.5 7.5s3.358 7.5 7.5 7.5h47.637c4.142 0 7.5-3.358 7.5-7.5s-3.358-7.5-7.5-7.5z"/></g></svg>