<svg id="Capa_1" enable-background="new 0 0 510.056 510.056" height="512" viewBox="0 0 510.056 510.056" width="512" xmlns="http://www.w3.org/2000/svg"><g><path d="m456.271 335.91 7.616-4.081c15.328-8.214 24.849-24.119 24.849-41.509v-125.156c0-18.002-14.646-32.648-32.648-32.648-4.297 0-8.399.843-12.16 2.358v-26.358c0-4.142-3.358-7.5-7.5-7.5s-7.5 3.358-7.5 7.5v35.167c0 .943.182 1.842.499 2.673-3.765 5.321-5.987 11.808-5.987 18.808v45.59h-1.073c-35.065 0-63.593 28.528-63.593 63.594v27.207c0 4.142 3.358 7.5 7.5 7.5s7.5-3.358 7.5-7.5v-27.207c0-26.795 21.799-48.594 48.593-48.594h8.573c4.142 0 7.5-3.358 7.5-7.5v-53.09c0-9.731 7.917-17.648 17.648-17.648s17.648 7.917 17.648 17.648v125.156c0 11.851-6.489 22.69-16.934 28.287l-7.616 4.081c-6.032 3.233-9.779 9.492-9.779 16.335v28.134h-154.204v-18.531c0-1.374-.377-2.72-1.09-3.894l-14.225-23.416c-4.814-7.925-7.359-17.015-7.359-26.287v-220.989c0-8.367 6.808-15.175 15.175-15.175s15.175 6.808 15.175 15.175v32.172 37.471c0 4.142 3.358 7.5 7.5 7.5s7.5-3.358 7.5-7.5v-37.471-32.172-24.115c0-8.367 6.808-15.175 15.175-15.175s15.175 6.808 15.175 15.175v64.757 29c0 4.142 3.358 7.5 7.5 7.5s7.5-3.358 7.5-7.5v-29-64.757-19.75c0-8.367 6.808-15.175 15.175-15.175s15.175 6.808 15.175 15.175v28.945 55.563 29c0 4.142 3.358 7.5 7.5 7.5s7.5-3.358 7.5-7.5v-29-55.563c0-8.367 6.808-15.175 15.175-15.175s15.175 6.808 15.175 15.175v17.434c0 4.142 3.358 7.5 7.5 7.5s7.5-3.358 7.5-7.5v-17.434c0-16.639-13.537-30.175-30.175-30.175-5.53 0-10.713 1.502-15.175 4.11v-2.88c-.002-16.639-13.538-30.175-30.177-30.175-14.597 0-26.804 10.419-29.58 24.211-4.592-2.826-9.993-4.461-15.769-4.461-15.996 0-29.118 12.512-30.108 28.263-4.477-2.632-9.684-4.148-15.242-4.148-9.03 0-17.14 3.992-22.675 10.298-5.535-6.306-13.645-10.298-22.675-10.298-5.558 0-10.765 1.517-15.242 4.148-.99-15.751-14.112-28.263-30.108-28.263-5.777 0-11.177 1.634-15.769 4.461-2.776-13.792-14.983-24.211-29.581-24.211-16.639 0-30.175 13.536-30.175 30.175v2.88c-4.462-2.608-9.645-4.11-15.175-4.11-16.639 0-30.175 13.536-30.175 30.175v75.755c-3.761-1.515-7.863-2.358-12.16-2.358-18.002 0-32.648 14.646-32.648 32.648v33.274c0 4.142 3.358 7.5 7.5 7.5s7.5-3.358 7.5-7.5v-33.274c0-9.731 7.917-17.648 17.648-17.648s17.648 7.917 17.648 17.648v53.09c0 4.142 3.358 7.5 7.5 7.5h8.573c26.794 0 48.593 21.799 48.593 48.594v27.207c0 4.142 3.358 7.5 7.5 7.5s7.5-3.358 7.5-7.5v-27.207c0-35.066-28.528-63.594-63.593-63.594h-1.073v-45.59c0-7-2.222-13.487-5.987-18.809.318-.831.499-1.73.499-2.673v-84.563c0-8.367 6.808-15.175 15.175-15.175s15.175 6.808 15.175 15.175v55.563 29c0 4.142 3.358 7.5 7.5 7.5s7.5-3.358 7.5-7.5v-29-55.563-28.945c0-8.367 6.808-15.175 15.175-15.175s15.175 6.808 15.175 15.175v19.75 64.757 29c0 4.142 3.358 7.5 7.5 7.5s7.5-3.358 7.5-7.5v-29-64.757c0-8.367 6.808-15.175 15.175-15.175 8.368 0 15.175 6.808 15.175 15.175v24.115 32.172 37.471c0 4.142 3.358 7.5 7.5 7.5s7.5-3.358 7.5-7.5v-37.471-32.172c0-8.367 6.808-15.175 15.175-15.175s15.175 6.808 15.175 15.175v220.989c0 9.272-2.545 18.362-7.359 26.287l-14.226 23.416c-.713 1.174-1.09 2.521-1.09 3.894v18.531h-34.251c-4.142 0-7.5 3.358-7.5 7.5s3.358 7.5 7.5 7.5h44.833c6.042 0 10.957 4.915 10.957 10.956 0 6.042-4.915 10.957-10.957 10.957h-174.054c-6.041 0-10.956-4.915-10.956-10.957 0-6.041 4.915-10.956 10.956-10.956h97.258c4.142 0 7.5-3.358 7.5-7.5s-3.358-7.5-7.5-7.5h-87.99v-28.134c0-6.843-3.747-13.103-9.779-16.335l-7.615-4.082c-10.446-5.596-16.935-16.435-16.935-28.286v-59.92c0-4.142-3.358-7.5-7.5-7.5s-7.5 3.358-7.5 7.5v59.919c0 17.39 9.522 33.295 24.85 41.508l7.615 4.081c1.15.617 1.864 1.81 1.864 3.114v28.78c-11.562 2.618-20.224 12.968-20.224 25.31 0 12.282 8.578 22.592 20.055 25.272v84.17c0 4.142 3.358 7.5 7.5 7.5s7.5-3.358 7.5-7.5v-83.484h154.373v83.485c0 4.142 3.358 7.5 7.5 7.5s7.5-3.358 7.5-7.5v-83.869c5.851-1.008 11.04-3.976 14.856-8.209 3.955 4.386 9.381 7.418 15.493 8.315v33.078c0 4.142 3.358 7.5 7.5 7.5s7.5-3.358 7.5-7.5v-32.8h154.373v83.485c0 4.142 3.358 7.5 7.5 7.5s7.5-3.358 7.5-7.5v-83.517c13.727-.662 24.691-12.036 24.691-25.924 0-13.945-11.055-25.352-24.861-25.928v-28.162c.001-1.305.716-2.498 1.866-3.114zm-216.418 31.632v-16.816l13.136-21.622c.721-1.186 1.398-2.395 2.039-3.62.642 1.225 1.319 2.433 2.039 3.62l13.135 21.622v16.71c-6.112.896-11.538 3.929-15.493 8.315-3.816-4.233-9.005-7.201-14.856-8.209zm224.414 25.572c0 6.042-4.915 10.957-10.957 10.957h-179.326c-6.042 0-10.957-4.915-10.957-10.957 0-6.041 4.915-10.956 10.957-10.956h179.326c6.042 0 10.957 4.915 10.957 10.956z"/><path d="m277.703 476.332c-4.142 0-7.5 3.358-7.5 7.5v18.724c0 4.142 3.358 7.5 7.5 7.5s7.5-3.358 7.5-7.5v-18.724c0-4.142-3.358-7.5-7.5-7.5z"/></g></svg>