<?xml version="1.0" encoding="iso-8859-1"?>
<!-- Generator: Adobe Illustrator 21.0.0, SVG Export Plug-In . SVG Version: 6.00 Build 0)  -->
<svg xmlns="http://www.w3.org/2000/svg" xmlns:xlink="http://www.w3.org/1999/xlink" version="1.1" id="Capa_1" x="0px" y="0px" viewBox="0 0 512 512" style="enable-background:new 0 0 512 512;" xml:space="preserve" width="512" height="512">
<g>
	<g>
		<path d="M87.497,172.373v50h337.006v-50h-31.984l8.488-110.497h-8.099c-24.341,0-25.353,10.189-45.642,10.189    c-20.135,0-21.347-10.189-45.642-10.189c-24.338,0-25.349,10.189-45.635,10.189c-20.134,0-21.344-10.189-45.637-10.189    c-24.34,0-25.347,10.189-45.634,10.189c-20.132,0-21.356-10.189-45.634-10.189h-8.099l8.488,110.497H87.497z M409.503,207.373    h-18.996l1.715-20h17.281V207.373z M102.497,207.373v-20h18.13l1.536,20H102.497z M127.229,77.473    c12.482,2.051,16.642,9.593,37.49,9.593c24.338,0,25.348-10.189,45.634-10.189c20.134,0,21.344,10.189,45.637,10.189    c24.338,0,25.349-10.189,45.635-10.189c20.135,0,21.36,10.189,45.642,10.189c20.684,0,25.285-7.588,37.497-9.593l-9.979,129.9    H137.554C133.102,155.418,134.489,171.978,127.229,77.473z"/>
		<polygon points="414.5,134.624 414.5,149.624 497,149.624 497,244.624 15,244.624 15,149.624 98.5,149.624 98.5,134.624     0,134.624 0,450.124 403,450.124 403,435.124 15,435.124 15,399.154 477,399.154 477,384.154 15,384.154 15,259.624 497,259.624     497,297.874 35,297.874 35,312.874 497,312.874 497,435.124 423,435.124 423,450.124 512,450.124 512,134.624   "/>
	</g>
	<g>
		<path d="M275.976,177.648h-15v-15h15V177.648z M250.976,177.648h-15v-15h15V177.648z"/>
	</g>
</g>















</svg>
