<?xml version="1.0" encoding="iso-8859-1"?>
<!-- Generator: Adobe Illustrator 19.0.0, SVG Export Plug-In . SVG Version: 6.00 Build 0)  -->
<svg version="1.1" id="Layer_1" xmlns="http://www.w3.org/2000/svg" xmlns:xlink="http://www.w3.org/1999/xlink" x="0px" y="0px"
	 viewBox="0 0 512 512" style="enable-background:new 0 0 512 512;" xml:space="preserve">
<g>
	<g>
		<g>
			<path d="M509.58,157.995L401.619,51.273c-0.037-0.037-0.075-0.074-0.114-0.111c-1.179-1.123-25.432-23.822-58.277-30.358
				c-0.399-0.079-0.797-0.159-1.196-0.232c-0.575-0.106-1.149-0.211-1.728-0.307c-0.778-0.129-1.554-0.249-2.33-0.357
				c-0.529-0.074-1.06-0.14-1.592-0.205c-0.67-0.083-1.338-0.156-2.005-0.224c-0.391-0.039-0.781-0.08-1.174-0.114
				c-1.022-0.088-2.039-0.156-3.053-0.207c-0.277-0.014-0.555-0.024-0.834-0.035c-1.13-0.047-2.255-0.077-3.371-0.077H307.59
				c-4.5,0-8.146,3.646-8.146,8.146c0,23.954-19.489,43.443-43.443,43.443c-23.954,0-43.443-19.489-43.443-43.443
				c0-4.5-3.646-8.146-8.146-8.146h-18.357c-1.121,0-2.25,0.031-3.383,0.078c-0.273,0.011-0.546,0.021-0.818,0.035
				c-1.032,0.052-2.067,0.121-3.105,0.211c-0.354,0.03-0.706,0.068-1.059,0.103c-0.726,0.072-1.452,0.153-2.181,0.243
				c-0.408,0.05-0.818,0.098-1.224,0.153c-0.897,0.124-1.796,0.263-2.697,0.414c-0.521,0.088-1.039,0.182-1.557,0.279
				c-0.482,0.089-0.963,0.184-1.446,0.28c-32.751,6.584-56.91,29.2-58.089,30.321c-0.039,0.036-0.077,0.073-0.114,0.111
				L2.42,157.995c-1.554,1.537-2.425,3.633-2.42,5.818c0.007,2.185,0.891,4.276,2.455,5.803l64.626,63.105
				c1.591,1.553,3.722,2.393,5.97,2.313c2.222-0.076,4.317-1.058,5.797-2.716l42.799-47.936v95.35
				c-0.031,0.293-0.051,0.59-0.051,0.892v34.247c0,0.302,0.02,0.598,0.051,0.892V484.81c0,4.5,3.646,8.146,8.146,8.146h31.719
				c4.5,0,8.146-3.646,8.146-8.146c0-4.5-3.646-8.146-8.146-8.146h-23.573V323.016h109.916v153.648h-62.449
				c-4.5,0-8.146,3.646-8.146,8.146s3.646,8.146,8.146,8.146h196.802c4.5,0,8.146-3.646,8.146-8.146V184.382l42.799,47.936
				c1.48,1.658,3.575,2.64,5.797,2.716c2.245,0.079,4.38-0.76,5.97-2.313l64.626-63.105c1.563-1.527,2.448-3.618,2.454-5.803
				C512.007,161.627,511.134,159.532,509.58,157.995z M264.146,86.367c26.434-3.621,47.416-24.597,51.035-51.031h10.764
				c0.939,0,1.875,0.028,2.805,0.067c0.279,0.012,0.558,0.026,0.839,0.041c0.727,0.039,1.449,0.091,2.17,0.152
				c0.23,0.02,0.459,0.035,0.691,0.056c0.798,0.076,1.592,0.172,2.383,0.274c-2.801,38.179-32.823,68.903-70.686,72.819V86.367z
				 M179.549,35.654c0.229-0.022,0.457-0.037,0.686-0.056c0.721-0.062,1.446-0.113,2.173-0.153c0.279-0.015,0.558-0.03,0.836-0.041
				c0.933-0.039,1.869-0.067,2.811-0.067c0,0,10.764,0,10.764,0c3.619,26.434,24.601,47.411,51.035,51.031v22.392
				c-37.906-3.872-67.977-34.618-70.787-72.82C177.891,35.831,178.717,35.733,179.549,35.654z M72.368,215.114l-52.601-51.363
				l15.502-15.323l51.628,50.413L72.368,215.114z M132.696,155.416c-3.158-1.206-6.73-0.333-8.98,2.186l-25.957,29.073
				l-50.901-49.703l74.897-74.037c0.977-0.905,17.131-15.628,39.293-23.189c4.592,45.417,41.179,81.522,86.807,85.374v147.356
				H137.938V163.028C137.938,159.65,135.853,156.622,132.696,155.416z M374.062,476.665H264.146V323.016h109.916V476.665z
				 M388.284,157.603c-2.249-2.521-5.823-3.392-8.98-2.186c-3.157,1.204-5.242,4.234-5.242,7.611v109.449h-36.606
				c-4.5,0-8.146,3.646-8.146,8.146c0,4.5,3.646,8.146,8.146,8.146h36.555v17.956H137.938v-17.956h175.624
				c4.5,0,8.146-3.646,8.146-8.146c0-4.5-3.646-8.146-8.146-8.146h-49.416V125.114c45.592-3.899,82.134-40,86.708-85.4
				c22.263,7.568,38.484,22.382,39.39,23.221l74.02,73.169l-50.846,49.65L388.284,157.603z M439.632,215.114l-15.353-17.196
				l51.572-50.359l16.381,16.193L439.632,215.114z"/>
			<circle cx="281.978" cy="150.997" r="8.689"/>
			<circle cx="281.978" cy="196.982" r="8.689"/>
			<circle cx="281.978" cy="242.955" r="8.689"/>
			<circle cx="281.978" cy="350.846" r="8.689"/>
			<circle cx="281.978" cy="396.82" r="8.689"/>
		</g>
	</g>
</g>
<g>
</g>
<g>
</g>
<g>
</g>
<g>
</g>
<g>
</g>
<g>
</g>
<g>
</g>
<g>
</g>
<g>
</g>
<g>
</g>
<g>
</g>
<g>
</g>
<g>
</g>
<g>
</g>
<g>
</g>
</svg>
