<svg id="icons" enable-background="new 0 0 64 64" height="512" viewBox="0 0 64 64" width="512" xmlns="http://www.w3.org/2000/svg"><path d="m39.5 13v-9c0-.553-.447-1-1-1h-12c-.553 0-1 .447-1 1v9c0 .553.447 1 1 1h12c.553 0 1-.447 1-1zm-2-1h-10v-7h10z"/><path d="m32.53 32c.552 0 1-.447 1-1s-.448-1-1-1h-.01c-.552 0-.994.447-.994 1s.452 1 1.004 1z"/><path d="m20.207 20.289-2-2.002c-.188-.188-.441-.293-.707-.293h-4.002c-.266 0-.52.105-.707.293l-2 2.002c-.188.188-.293.442-.293.707v2.002c-.552.002-.998.448-.998 1s.446.998.998 1v4c0 .553.447 1 1 1h3.002v11.502c0 3.584 2.916 6.5 6.5 6.5s6.5-2.916 6.5-6.5v-6.496h2v16.992h-9.001c-.553 0-1 .447-1 1v5.188c-1.161.414-2 1.514-2 2.815 0 1.654 1.346 3 3 3s3-1.346 3-3c0-1.302-.839-2.401-2-2.815v-1.184h10.001v1.185c-1.161.414-2 1.514-2 2.815 0 1.654 1.346 3 3 3s3-1.346 3-3c0-1.302-.839-2.401-2-2.815v-1.185h10.001v1.185c-1.161.414-2 1.514-2 2.815 0 1.654 1.346 3 3 3s3-1.346 3-3c0-1.302-.839-2.401-2-2.815v-5.188c0-.553-.447-1-1-1h-9.001v-16.993h2.001v6.496c0 3.584 2.916 6.5 6.5 6.5s6.5-2.916 6.5-6.5v-9.605c2.271-.463 3.985-2.473 3.995-4.877 0-.007.004-.013.004-.02v-3.998c0-2.757-2.243-5-5-5s-5 2.243-5 5v3.998c0 .007.004.013.004.02.01 2.404 1.725 4.414 3.997 4.878v9.604c0 2.481-2.019 4.5-4.5 4.5s-4.5-2.019-4.5-4.5v-6.496h1.999c.553 0 1-.447 1-1v-15c0-.553-.447-1-1-1h-3.001v-1.004h1.001c1.654 0 3-1.346 3-3v-11c0-1.654-1.346-3-3-3h-14c-1.654 0-3 1.346-3 3v11c0 1.654 1.346 3 3 3h1.001v1.004h-3.001c-.553 0-1 .447-1 1v15c0 .553.447 1 1 1h2v6.496c0 2.481-2.019 4.5-4.5 4.5s-4.5-2.019-4.5-4.5v-11.502h3c.553 0 1-.447 1-1v-4c.553 0 1-.447 1-1s-.447-1-1-1v-2.002c0-.265-.105-.519-.293-.707zm12.293 41.711c-.552 0-1-.448-1-1s.448-1 1-1 1 .448 1 1-.448 1-1 1zm14.002-35.002c0-.004-.002-.006-.002-.01v-3.988c0-1.654 1.346-3 3-3s3 1.346 3 3v3.988c0 .004-.002.006-.002.01 0 1.653-1.345 2.998-2.998 2.998s-2.998-1.345-2.998-2.998zm-12.002 6.006h-4v-6.004h4zm-14.001 28.996c-.552 0-1-.448-1-1s.448-1 1-1 1 .448 1 1-.448 1-1 1zm1-7v-1.004h9.001 4 9.001v1.004zm23.002 7c-.552 0-1-.448-1-1s.448-1 1-1 1 .448 1 1-.448 1-1 1zm-11.001-10.004h-2v-16.992h2zm-9-37.996v-11c0-.552.448-1 1-1h14c.552 0 1 .448 1 1v11c0 .552-.448 1-1 1h-14c-.552 0-1-.448-1-1zm4.001 3h7.998v1.004h-7.998zm-4.001 3.004h16v13h-4v-7.004c0-.553-.447-1-1-1h-6c-.553 0-1 .447-1 1v7.004h-4zm-6 7.994h-2v-1c.553 0 1-.447 1-1s-.447-1-1-1h-.98c-.007 0-.013-.004-.02-.004s-.013.004-.02.004h-.98c-.553 0-1 .447-1 1s.447 1 1 1v1h-2.002v-6.588l1.414-1.416h3.174l1.414 1.416z"/></svg>