<?xml version="1.0" encoding="utf-8"?>
<!-- Generator: Adobe Illustrator 19.0.0, SVG Export Plug-In . SVG Version: 6.00 Build 0)  -->
<svg version="1.1" id="Layer_1" xmlns="http://www.w3.org/2000/svg" xmlns:xlink="http://www.w3.org/1999/xlink" x="0px" y="0px"
	 viewBox="0 0 230.8 141.6" style="enable-background:new 0 0 230.8 141.6;" xml:space="preserve">
<style type="text/css">
	.st0{fill:url(#XMLID_17_);}
	.st1{fill:url(#XMLID_19_);}
</style>
<g id="XMLID_18_">
	<linearGradient id="XMLID_17_" gradientUnits="userSpaceOnUse" x1="207.625" y1="157.6494" x2="86.0014" y2="45.788">
		<stop  offset="0" style="stop-color:#311445"/>
		<stop  offset="8.095226e-002" style="stop-color:#2D2348"/>
		<stop  offset="0.236" style="stop-color:#23494F"/>
		<stop  offset="0.4493" style="stop-color:#12885B"/>
		<stop  offset="0.6649" style="stop-color:#00CE69"/>
		<stop  offset="0.707" style="stop-color:#06CF69"/>
		<stop  offset="0.7634" style="stop-color:#17D169"/>
		<stop  offset="0.8279" style="stop-color:#33D469"/>
		<stop  offset="0.8984" style="stop-color:#5AD969"/>
		<stop  offset="0.9729" style="stop-color:#8BE069"/>
		<stop  offset="1" style="stop-color:#9FE269"/>
	</linearGradient>
	<path id="XMLID_15_" class="st0" d="M230.8,4.1c0,0-57.9-25.1-61,48.8c-2,47.3-32.3,50.5-90,36.2C20,74.4,0,141.6,0,141.6h230.8
		V4.1z"/>
	<linearGradient id="XMLID_19_" gradientUnits="userSpaceOnUse" x1="211.8062" y1="174.6154" x2="113.3682" y2="61.5339">
		<stop  offset="0" style="stop-color:#311445"/>
		<stop  offset="8.095226e-002" style="stop-color:#2D2348"/>
		<stop  offset="0.236" style="stop-color:#23494F"/>
		<stop  offset="0.4493" style="stop-color:#12885B"/>
		<stop  offset="0.6649" style="stop-color:#00CE69"/>
		<stop  offset="0.707" style="stop-color:#06CF69"/>
		<stop  offset="0.7634" style="stop-color:#17D169"/>
		<stop  offset="0.8279" style="stop-color:#33D469"/>
		<stop  offset="0.8984" style="stop-color:#5AD969"/>
		<stop  offset="0.9729" style="stop-color:#8BE069"/>
		<stop  offset="1" style="stop-color:#9FE269"/>
	</linearGradient>
	<path id="XMLID_14_" class="st1" d="M34.7,141.6c0,0,2.2-29.2,34.6-34.6c30.1-5,74.7,28.1,89-5.7c14.2-33.8,49.8-6,47.2-47.2
		c-1.7-27.5,25.4-28.1,25.4-28.1v115.5H34.7z"/>
</g>
</svg>
