<?xml version="1.0" encoding="utf-8"?>
<!-- Generator: Adobe Illustrator 19.0.0, SVG Export Plug-In . SVG Version: 6.00 Build 0)  -->
<svg version="1.1" id="Capa_1" xmlns="http://www.w3.org/2000/svg" xmlns:xlink="http://www.w3.org/1999/xlink" x="0px" y="0px"
	 viewBox="0 0 476.2 290.4" style="enable-background:new 0 0 476.2 290.4;" xml:space="preserve">
<style type="text/css">
	.st0{opacity:0.75;fill:#0078BF;}
	.st1{opacity:0.4;fill:#0078BF;}
	.st2{opacity:0.5;fill:#0078BF;}
	.st3{opacity:0.6;fill:#0078BF;}
</style>
<g>
	<g>
		<path class="st0" d="M27.8,201.5h2.7l0,0v9l0,0h-2.3c-4,0-6.9,1.9-8.7,5.6c-1.1,2.3-1.6,5.3-1.6,9h12.7l0,0v9l0,0H17.8v35.8l0,0
			h-9v-35.9H0l0,0v-9l0,0h8.7v-0.2c0-8.2,2.3-14.4,6.8-18.7c1.7-1.6,3.4-2.7,5.2-3.4C23,202,25.4,201.5,27.8,201.5z"/>
		<path class="st0" d="M56.4,224.5c5.2,0,9.7,2,13.4,6v-5.2l0.1-0.1h8.9l0.1,0.1v44.7l-0.1,0.1H70l-0.1-0.1v-4.5
			c-3.5,3.8-8,5.8-13.5,5.8h0c-6.8,0-12.7-2.8-17.4-8.3c-3.6-4.5-5.3-9.5-5.3-15.1v0c0-6.9,2.7-12.8,8-17.8
			C45.9,226.4,50.9,224.5,56.4,224.5z M42.5,247.9c0,4.9,2.1,9,6.4,12.1c2.4,1.4,4.6,2.2,6.8,2.2h1c3,0,5.9-1.2,8.7-3.7
			c2.9-3,4.4-6.5,4.4-10.6v0c0-5-2.1-9-6.4-12.1c-2.3-1.4-4.7-2.2-6.9-2.2h-0.8c-3.8,0-7.1,1.7-10.2,5.2
			C43.6,241.7,42.5,244.7,42.5,247.9z"/>
		<path class="st0" d="M112.7,225h1.2c3.1,0,6.3,0.9,9.6,2.7v0c-1.3,5.9-2,9.1-2.2,9.3c-3-2-5.7-3-8-3h-0.8c-3,0-5.6,1.1-7.9,3.3
			c-1.7,2.1-2.6,6.1-2.6,11.9V270l-0.1,0.1h-8.8l-0.1-0.1v-44l0.1-0.1h8.8l0.1,0.1v3.4C105.6,226.4,109.1,225,112.7,225z"/>
		<path class="st0" d="M152.7,225.2h0.4c6.1,0,11,1.8,14.7,5.5c3.6-3.7,8.5-5.5,14.7-5.5h1.5c8.3,0,14.1,3.1,17.5,9.3
			c1.1,2.4,1.7,4.8,1.7,7.2V270l-0.1,0.1h-8.8l-0.1-0.1v-28.1c0-3.4-1.9-5.7-5.6-7c-1.2-0.4-2.6-0.6-4.4-0.6h-1.8
			c-4.9,0-8,1.6-9.5,4.9c-0.4,0.9-0.6,1.9-0.6,3V270l-0.1,0.1h-8.8l-0.1-0.1v-27.1c0-3.3-1.1-5.6-3.2-6.8c-1.7-1.2-3.9-1.8-6.8-1.8
			h-0.8c-3.8,0-6.5,0.6-8.1,1.8c-2.1,1.3-3.1,3.6-3.1,6.9v27l-0.1,0.1h-8.8l-0.1-0.1v-44.4l0.1-0.1h8.8l0.1,0.1v2.5h0
			c1.6-0.9,3.7-1.7,6.3-2.4C149.1,225.4,150.7,225.2,152.7,225.2z"/>
		<path class="st0" d="M237.4,224.5c5.2,0,9.7,2,13.4,6v-5.2l0.1-0.1h8.9l0.1,0.1v44.7l-0.1,0.1H251l-0.1-0.1v-4.5
			c-3.5,3.8-8,5.8-13.5,5.8h0c-6.8,0-12.7-2.8-17.4-8.3c-3.6-4.5-5.3-9.5-5.3-15.1v0c0-6.9,2.7-12.8,8-17.8
			C226.9,226.4,231.9,224.5,237.4,224.5z M223.6,247.9c0,4.9,2.1,9,6.4,12.1c2.4,1.4,4.6,2.2,6.8,2.2h1c3,0,5.9-1.2,8.7-3.7
			c2.9-3,4.4-6.5,4.4-10.6v0c0-5-2.1-9-6.4-12.1c-2.3-1.4-4.7-2.2-6.9-2.2h-0.8c-3.8,0-7.1,1.7-10.2,5.2
			C224.6,241.7,223.6,244.7,223.6,247.9z"/>
		<path class="st1" d="M293.9,224.5L293.9,224.5c4.8,0,9.2,1.4,13.2,4.3c0.8,0.6,1.6,1.3,2.5,2.2c1.2,1.2,1.9,2.1,2.3,2.7
			c0.5,0.6,0.7,1,0.7,1l-7.5,5h0c-0.3-0.6-1-1.3-1.8-2.2c-2.8-2.6-5.9-3.9-9.4-3.9c-3.3,0-6.4,1.2-9.1,3.7c-1,1-1.6,1.7-1.8,2.2
			c-1.8,2.6-2.7,5.4-2.7,8.5c0,3.4,1.1,6.5,3.2,9.2c0.7,0.8,1.4,1.5,2.2,2.2c2.5,1.9,5.3,2.9,8.3,2.9c2.8,0,5.3-0.8,7.7-2.5
			c0.5-0.3,1.3-1,2.2-1.9c0.5-0.6,1-1.2,1.4-1.8h0l7.5,5c-0.5,0.8-1.3,1.8-2.2,2.8c-1.1,1.2-1.8,1.9-2.3,2.2c-1,0.8-1.9,1.5-2.7,2
			c-3.7,2.3-7.6,3.4-11.6,3.4h-0.4c-4.3,0-8.4-1.3-12.2-3.8c-0.8-0.5-1.4-1-2.1-1.5c-1.2-1.1-2-1.9-2.6-2.6
			c-1.3-1.5-2.1-2.8-2.7-3.8c-0.6-1-1.2-2.3-1.7-4c-0.8-2.5-1.2-4.9-1.2-7.2v-0.8c0-3.5,0.9-7,2.6-10.6c0.5-1,1.1-2,1.8-3
			c0.5-0.7,1.3-1.7,2.4-2.8c1.3-1.2,2.3-2.1,3.2-2.7C285.2,225.9,289.4,224.5,293.9,224.5z"/>
		<path class="st1" d="M342.8,224.5c5.1,0,9.8,1.6,14,4.9c0.6,0.4,1.4,1.2,2.5,2.3c2.2,2.4,3.7,4.9,4.6,7.4c1.1,2.8,1.6,5.7,1.6,8.8
			c0,3.9-1,7.7-2.9,11.3c-0.7,1.2-1.5,2.5-2.7,3.9c-1.2,1.4-2.2,2.4-3,3c-0.8,0.7-1.6,1.3-2.4,1.7c-3.7,2.3-7.6,3.4-11.6,3.4h-0.4
			c-4.3,0-8.3-1.3-12.2-3.8c-0.8-0.6-1.4-1.1-2-1.6c-1.2-1-2.1-1.9-2.6-2.6c-0.7-0.8-1.3-1.6-1.8-2.4c-0.6-1-1.2-2-1.6-2.9
			c-1.5-3.3-2.2-6.5-2.2-9.7v-0.7c0-3.5,0.9-7,2.6-10.6c0.5-1,1.1-2,1.8-3c0.5-0.8,1.3-1.7,2.4-2.9c1.5-1.4,2.6-2.3,3.3-2.7
			C334.1,225.9,338.3,224.5,342.8,224.5z M329.2,248c0,3.4,1.1,6.5,3.3,9.3c1,1.1,1.7,1.8,2.3,2.2c2.5,1.9,5.2,2.8,8.1,2.8
			c3.6,0,6.7-1.3,9.5-4c1.1-1.2,1.9-2.2,2.3-3c1.3-2.3,1.9-4.7,1.9-7.2v-0.1c0-3.6-1.2-6.8-3.7-9.7c-1.1-1.1-1.8-1.8-2.2-1.9
			c-0.5-0.4-1-0.8-1.5-1c-2-1.1-4.1-1.6-6.3-1.6c-3.3,0-6.3,1.2-9.1,3.7c-1,1-1.6,1.7-1.8,2.2C330.1,242,329.2,244.8,329.2,248z"/>
		<path class="st1" d="M396.7,224.5c5.1,0,9.8,1.6,14,4.9c0.6,0.4,1.4,1.2,2.5,2.3c2.2,2.4,3.7,4.9,4.6,7.4c1.1,2.8,1.6,5.7,1.6,8.8
			c0,3.9-1,7.7-2.9,11.3c-0.7,1.2-1.5,2.5-2.7,3.9c-1.2,1.4-2.2,2.4-3,3c-0.8,0.7-1.6,1.3-2.4,1.7c-3.7,2.3-7.6,3.4-11.6,3.4h-0.4
			c-4.3,0-8.3-1.3-12.2-3.8c-0.8-0.6-1.4-1.1-2-1.6c-1.2-1-2.1-1.9-2.6-2.6c-0.7-0.8-1.3-1.6-1.8-2.4c-0.6-1-1.2-2-1.6-2.9
			c-1.5-3.3-2.2-6.5-2.2-9.7v-0.7c0-3.5,0.9-7,2.6-10.6c0.5-1,1.1-2,1.8-3c0.5-0.8,1.3-1.7,2.4-2.9c1.5-1.4,2.6-2.3,3.3-2.7
			C387.9,225.9,392.1,224.5,396.7,224.5z M383.1,248c0,3.4,1.1,6.5,3.3,9.3c1,1.1,1.7,1.8,2.3,2.2c2.5,1.9,5.2,2.8,8.1,2.8
			c3.6,0,6.7-1.3,9.5-4c1.1-1.2,1.9-2.2,2.3-3c1.3-2.3,1.9-4.7,1.9-7.2v-0.1c0-3.6-1.2-6.8-3.7-9.7c-1.1-1.1-1.8-1.8-2.2-1.9
			c-0.5-0.4-1-0.8-1.5-1c-2-1.1-4.1-1.6-6.3-1.6c-3.3,0-6.3,1.2-9.1,3.7c-1,1-1.6,1.7-1.8,2.2C384,242,383.1,244.8,383.1,248z"/>
		<path class="st1" d="M453.1,224.6c4.5,0,8.6,1.1,12.2,3.3c1,0.6,2.1,1.5,3.5,2.7c1.2,1.2,1.9,2,2.2,2.4c0.8,1,1.4,1.9,2,2.9
			c2.1,3.8,3.2,7.8,3.2,12.1c0,5.2-1.6,9.9-4.8,14.3c-0.4,0.6-1.2,1.5-2.4,2.8l-0.8,0.7c-4.4,3.7-9.3,5.5-14.7,5.5
			c-3.9,0-7.5-1.1-10.7-3.4c-0.6-0.4-1.4-1.1-2.4-2.1l-0.5-0.5v25h-9l0,0v-64.9l0,0h9v4.9c1.1-1.2,1.8-1.9,2.1-2
			c0.9-0.7,1.8-1.3,2.4-1.6c1-0.5,1.9-0.9,2.9-1.2c0.7-0.2,2-0.5,3.8-0.8C451.7,224.6,452.3,224.6,453.1,224.6z M439.9,247.1v1.9
			c0,0.9,0.2,2.1,0.7,3.8c0.4,1,0.8,2,1.2,2.8c0.5,0.7,1.1,1.5,2,2.5c1,1,1.6,1.6,2,1.8c0.8,0.5,1.4,0.9,2,1.2
			c2,0.8,3.7,1.3,5.3,1.3h0.6c2.8,0,5.4-0.9,7.9-2.8c0.4-0.3,1.1-0.9,1.9-1.7c1.5-1.8,2.5-3.6,3-5.4c0.4-1.4,0.7-2.9,0.7-4.4
			c0-3.6-1.2-6.8-3.5-9.6c-1-1.1-1.6-1.7-1.8-1.8c-2.5-2-5.3-3-8.3-3h-0.4c-1.7,0-3.5,0.4-5.4,1.3c-1,0.4-2,1.2-3.2,2.3
			c-1.1,1.1-1.8,1.9-2.1,2.4c-0.5,0.7-0.8,1.4-1.1,1.9c-0.3,0.6-0.6,1.4-0.9,2.3C440.1,245.3,439.9,246.4,439.9,247.1z"/>
	</g>
	<circle class="st0" cx="203.2" cy="98.8" r="47.6"/>
	<circle class="st2" cx="276.3" cy="98.8" r="47.6"/>
	<path class="st3" d="M287.3,47.6c0,26.3-21.3,47.6-47.6,47.6c-26.3,0-47.6-21.3-47.6-47.6c0-26.3,21.3-47.6,47.6-47.6
		C266,0,287.3,21.3,287.3,47.6z"/>
	<circle class="st1" cx="239.7" cy="138" r="47.6"/>
</g>
</svg>
