<?xml version="1.0" encoding="UTF-8" standalone="no"?>
<!-- Created with Inkscape (http://www.inkscape.org/) -->

<svg
   xmlns:dc="http://purl.org/dc/elements/1.1/"
   xmlns:cc="http://creativecommons.org/ns#"
   xmlns:rdf="http://www.w3.org/1999/02/22-rdf-syntax-ns#"
   xmlns:svg="http://www.w3.org/2000/svg"
   xmlns="http://www.w3.org/2000/svg"
   xmlns:sodipodi="http://sodipodi.sourceforge.net/DTD/sodipodi-0.dtd"
   xmlns:inkscape="http://www.inkscape.org/namespaces/inkscape"
   width="105.57055mm"
   height="64.37011mm"
   viewBox="0 0 105.57055 64.37011"
   version="1.1"
   id="svg3607"
   inkscape:version="0.92.3 (2405546, 2018-03-11)"
   sodipodi:docname="logo-w.svg">
  <defs
     id="defs3601">
    <clipPath
       clipPathUnits="userSpaceOnUse"
       id="clipPath244">
      <path
         d="m 228.098,9071.74 h 59.788 v -59.79 h -59.788 z"
         id="path242"
         inkscape:connector-curvature="0" />
    </clipPath>
    <clipPath
       clipPathUnits="userSpaceOnUse"
       id="clipPath228">
      <path
         d="m 228.098,9128.54 h 59.788 v -59.79 h -59.788 z"
         id="path226"
         inkscape:connector-curvature="0" />
    </clipPath>
    <clipPath
       clipPathUnits="userSpaceOnUse"
       id="clipPath212">
      <path
         d="m 251.083,9096.35 h 59.79 v -59.79 h -59.79 z"
         id="path210"
         inkscape:connector-curvature="0" />
    </clipPath>
    <clipPath
       clipPathUnits="userSpaceOnUse"
       id="clipPath196">
      <path
         d="m 205.158,9096.35 h 59.789 v -59.79 h -59.789 z"
         id="path194"
         inkscape:connector-curvature="0" />
    </clipPath>
  </defs>
  <sodipodi:namedview
     id="base"
     pagecolor="#ffffff"
     bordercolor="#666666"
     borderopacity="1.0"
     inkscape:pageopacity="0.0"
     inkscape:pageshadow="2"
     inkscape:zoom="0.35"
     inkscape:cx="-233.35375"
     inkscape:cy="173.07285"
     inkscape:document-units="mm"
     inkscape:current-layer="layer1"
     showgrid="false"
     inkscape:window-width="1920"
     inkscape:window-height="1007"
     inkscape:window-x="0"
     inkscape:window-y="39"
     inkscape:window-maximized="1" />
  <metadata
     id="metadata3604">
    <rdf:RDF>
      <cc:Work
         rdf:about="">
        <dc:format>image/svg+xml</dc:format>
        <dc:type
           rdf:resource="http://purl.org/dc/dcmitype/StillImage" />
        <dc:title></dc:title>
      </cc:Work>
    </rdf:RDF>
  </metadata>
  <g
     inkscape:label="Layer 1"
     inkscape:groupmode="layer"
     id="layer1"
     transform="translate(4.4043215,-130.25542)">
    <g
       id="g154"
       transform="matrix(0.35277777,0,0,-0.35277777,1.76047,174.92525)">
      <path
         d="M 0,0 H 1.68 L 1.709,-0.029 V -5.687 L 1.68,-5.717 H 0.206 c -2.534,0 -4.361,-1.179 -5.481,-3.537 -0.688,-1.453 -1.031,-3.34 -1.031,-5.657 H 1.68 l 0.029,-0.029 v -5.629 l -0.029,-0.03 h -7.986 v -22.514 l -0.03,-0.03 h -5.658 v 22.544 h -5.451 l -0.03,0.03 v 5.629 l 0.03,0.029 h 5.451 v 0.117 c 0,5.128 1.415,9.037 4.244,11.729 1.061,0.983 2.141,1.699 3.241,2.152 C -2.996,-0.305 -1.493,0 0,0"
         style="fill:#ffffff;fill-opacity:1;fill-rule:nonzero;stroke:none"
         id="path156"
         inkscape:connector-curvature="0" />
    </g>
    <g
       id="g158"
       transform="matrix(0.35277777,0,0,-0.35277777,5.0248288,185.20678)">
      <path
         d="M 0,0 C 0,-3.104 1.336,-5.648 4.008,-7.633 5.501,-8.536 6.915,-8.988 8.251,-8.988 H 8.9 c 1.886,0 3.713,0.765 5.481,2.299 1.846,1.885 2.77,4.105 2.77,6.66 V 0 c 0,3.143 -1.336,5.678 -4.008,7.603 C 11.67,8.506 10.216,8.958 8.782,8.958 H 8.31 C 5.953,8.958 3.821,7.868 1.916,5.687 0.638,3.879 0,1.983 0,0 m 8.723,14.675 c 3.28,0 6.09,-1.247 8.428,-3.742 v 3.242 l 0.088,0.058 h 5.57 l 0.059,-0.058 v -28.113 l -0.059,-0.06 h -5.57 l -0.088,0.06 v 2.858 c -2.201,-2.417 -5.03,-3.625 -8.487,-3.625 h -0.03 c -4.302,0 -7.956,1.739 -10.962,5.217 -2.24,2.808 -3.359,5.962 -3.359,9.459 V 0 c 0,4.321 1.669,8.055 5.009,11.198 2.77,2.318 5.904,3.477 9.401,3.477"
         style="fill:#ffffff;fill-opacity:1;fill-rule:nonzero;stroke:none"
         id="path160"
         inkscape:connector-curvature="0" />
    </g>
    <g
       id="g162"
       transform="matrix(0.35277777,0,0,-0.35277777,20.587656,180.12322)">
      <path
         d="M 0,0 H 0.736 C 2.682,0 4.694,-0.57 6.777,-1.709 V -1.738 C 5.952,-5.472 5.501,-7.427 5.422,-7.604 3.536,-6.365 1.865,-5.746 0.412,-5.746 h -0.471 c -1.886,0 -3.547,-0.698 -4.98,-2.093 C -6.12,-9.155 -6.66,-11.65 -6.66,-15.324 V -28.29 l -0.059,-0.089 h -5.511 l -0.088,0.089 v 27.671 l 0.088,0.059 h 5.511 L -6.66,-0.619 V -2.74 C -4.499,-0.914 -2.279,0 0,0"
         style="fill:#ffffff;fill-opacity:1;fill-rule:nonzero;stroke:none"
         id="path164"
         inkscape:connector-curvature="0" />
    </g>
    <g
       id="g166"
       transform="matrix(0.35277777,0,0,-0.35277777,29.45522,180.18556)">
      <path
         d="M 0,0 H 0.266 C 4.076,0 7.151,-1.149 9.489,-3.448 11.729,-1.149 14.813,0 18.742,0 h 0.914 c 5.187,0 8.86,-1.955 11.021,-5.864 0.708,-1.532 1.061,-3.045 1.061,-4.538 v -17.741 l -0.059,-0.088 h -5.54 l -0.059,0.088 v 17.681 c 0,2.122 -1.179,3.585 -3.536,4.391 -0.727,0.256 -1.65,0.384 -2.77,0.384 h -1.149 c -3.065,0 -5.049,-1.023 -5.953,-3.066 -0.236,-0.55 -0.354,-1.169 -0.354,-1.855 v -17.535 l -0.059,-0.088 h -5.54 l -0.059,0.088 v 17.033 c 0,2.102 -0.678,3.537 -2.033,4.302 -1.041,0.746 -2.456,1.121 -4.243,1.121 h -0.472 c -2.397,0 -4.096,-0.375 -5.098,-1.121 -1.297,-0.786 -1.945,-2.239 -1.945,-4.361 v -16.974 l -0.088,-0.088 h -5.511 l -0.088,0.088 v 27.908 l 0.088,0.088 h 5.511 l 0.088,-0.088 v -1.592 h 0.029 c 1.002,0.55 2.318,1.06 3.949,1.532 C -2.308,-0.099 -1.257,0 0,0"
         style="fill:#ffffff;fill-opacity:1;fill-rule:nonzero;stroke:none"
         id="path168"
         inkscape:connector-curvature="0" />
    </g>
    <g
       id="g170"
       transform="matrix(0.35277777,0,0,-0.35277777,45.153336,185.20678)">
      <path
         d="M 0,0 C 0,-3.104 1.335,-5.648 4.008,-7.633 5.5,-8.536 6.914,-8.988 8.251,-8.988 h 0.648 c 1.886,0 3.713,0.765 5.482,2.299 1.846,1.885 2.77,4.105 2.77,6.66 V 0 c 0,3.143 -1.337,5.678 -4.008,7.603 C 11.67,8.506 10.215,8.958 8.781,8.958 H 8.31 C 5.952,8.958 3.821,7.868 1.915,5.687 0.638,3.879 0,1.983 0,0 m 8.722,14.675 c 3.281,0 6.091,-1.247 8.429,-3.742 v 3.242 l 0.088,0.058 h 5.569 l 0.059,-0.058 v -28.113 l -0.059,-0.06 h -5.569 l -0.088,0.06 v 2.858 c -2.201,-2.417 -5.03,-3.625 -8.488,-3.625 H 8.634 c -4.302,0 -7.957,1.739 -10.962,5.217 -2.24,2.808 -3.36,5.962 -3.36,9.459 V 0 c 0,4.321 1.67,8.055 5.01,11.198 2.77,2.318 5.903,3.477 9.4,3.477"
         style="fill:#ffffff;fill-opacity:1;fill-rule:nonzero;stroke:none"
         id="path172"
         inkscape:connector-curvature="0" />
    </g>
    <g
       id="g174"
       transform="matrix(0.35277777,0,0,-0.35277777,60.747102,180.02984)">
      <path
         d="m 0,0 h 0.059 c 2.947,0 5.697,-0.903 8.251,-2.711 0.472,-0.353 1.002,-0.815 1.592,-1.385 0.726,-0.747 1.208,-1.306 1.444,-1.679 0.294,-0.394 0.441,-0.61 0.441,-0.649 L 7.073,-9.547 H 7.043 C 6.827,-9.194 6.444,-8.732 5.894,-8.162 4.165,-6.513 2.2,-5.687 0,-5.687 c -2.102,0 -4.008,-0.766 -5.717,-2.298 -0.629,-0.629 -1.012,-1.081 -1.149,-1.356 -1.14,-1.611 -1.71,-3.399 -1.71,-5.363 0,-2.122 0.679,-4.058 2.034,-5.806 0.432,-0.511 0.884,-0.963 1.356,-1.355 1.571,-1.219 3.31,-1.827 5.215,-1.827 1.729,0 3.34,0.53 4.833,1.59 0.334,0.217 0.796,0.62 1.385,1.209 0.334,0.393 0.619,0.776 0.855,1.15 h 0.03 l 4.744,-3.124 c -0.334,-0.53 -0.786,-1.12 -1.356,-1.769 -0.667,-0.726 -1.139,-1.188 -1.414,-1.385 -0.648,-0.53 -1.208,-0.943 -1.68,-1.237 -2.338,-1.415 -4.764,-2.122 -7.279,-2.122 h -0.265 c -2.692,0 -5.256,0.796 -7.691,2.387 -0.471,0.334 -0.904,0.658 -1.297,0.972 -0.727,0.668 -1.267,1.218 -1.62,1.651 -0.786,0.963 -1.346,1.768 -1.68,2.416 -0.374,0.629 -0.737,1.464 -1.09,2.505 -0.512,1.592 -0.767,3.095 -0.767,4.509 v 0.471 c 0,2.2 0.54,4.41 1.621,6.631 0.334,0.609 0.717,1.237 1.149,1.886 0.334,0.452 0.835,1.041 1.503,1.767 0.785,0.747 1.464,1.317 2.034,1.709 C -5.501,-0.824 -2.849,0 0,0"
         style="fill:#ffffff;fill-opacity:1;fill-rule:nonzero;stroke:none"
         id="path176"
         inkscape:connector-curvature="0" />
    </g>
    <g
       id="g178"
       transform="matrix(0.35277777,0,0,-0.35277777,68.564799,185.22746)">
      <path
         d="m 0,0 c 0,-2.142 0.698,-4.087 2.093,-5.836 0.608,-0.687 1.079,-1.139 1.414,-1.355 1.552,-1.179 3.242,-1.768 5.069,-1.768 2.239,0 4.223,0.845 5.953,2.534 0.687,0.727 1.168,1.356 1.443,1.886 0.805,1.454 1.209,2.957 1.209,4.509 v 0.089 c 0,2.258 -0.777,4.292 -2.328,6.1 -0.669,0.706 -1.12,1.11 -1.356,1.208 -0.334,0.275 -0.649,0.49 -0.943,0.648 C 11.277,8.702 9.951,9.047 8.576,9.047 6.493,9.047 4.588,8.271 2.859,6.719 2.25,6.109 1.867,5.657 1.71,5.363 0.57,3.771 0,1.983 0,0 m 8.576,14.733 c 3.202,0 6.129,-1.03 8.781,-3.093 0.373,-0.276 0.904,-0.767 1.592,-1.474 1.355,-1.513 2.318,-3.064 2.887,-4.656 0.688,-1.768 1.032,-3.605 1.032,-5.51 0,-2.476 -0.6,-4.853 -1.798,-7.132 -0.412,-0.747 -0.972,-1.561 -1.679,-2.446 -0.766,-0.884 -1.386,-1.503 -1.857,-1.857 -0.53,-0.432 -1.031,-0.795 -1.503,-1.089 -2.338,-1.415 -4.774,-2.122 -7.308,-2.122 H 8.458 c -2.672,0 -5.236,0.786 -7.692,2.357 -0.471,0.354 -0.894,0.687 -1.267,1.002 -0.766,0.648 -1.316,1.198 -1.65,1.65 -0.413,0.472 -0.796,0.983 -1.149,1.533 -0.393,0.628 -0.727,1.238 -1.002,1.827 -0.924,2.043 -1.385,4.076 -1.385,6.1 v 0.442 c 0,2.2 0.55,4.41 1.65,6.631 0.314,0.608 0.688,1.227 1.12,1.856 0.334,0.472 0.835,1.07 1.503,1.797 0.962,0.885 1.65,1.454 2.063,1.709 2.416,1.651 5.058,2.475 7.927,2.475"
         style="fill:#ffffff;fill-opacity:1;fill-rule:nonzero;stroke:none"
         id="path180"
         inkscape:connector-curvature="0" />
    </g>
    <g
       id="g182"
       transform="matrix(0.35277777,0,0,-0.35277777,80.509607,185.22746)">
      <path
         d="m 0,0 c 0,-2.142 0.698,-4.087 2.093,-5.836 0.608,-0.687 1.08,-1.139 1.414,-1.355 1.552,-1.179 3.242,-1.768 5.069,-1.768 2.239,0 4.223,0.845 5.953,2.534 0.687,0.727 1.168,1.356 1.443,1.886 0.805,1.454 1.209,2.957 1.209,4.509 v 0.089 c 0,2.258 -0.777,4.292 -2.328,6.1 -0.669,0.706 -1.12,1.11 -1.356,1.208 -0.334,0.275 -0.649,0.49 -0.943,0.648 C 11.277,8.702 9.951,9.047 8.576,9.047 6.493,9.047 4.588,8.271 2.859,6.719 2.25,6.109 1.867,5.657 1.71,5.363 0.57,3.771 0,1.983 0,0 m 8.576,14.733 c 3.202,0 6.129,-1.03 8.781,-3.093 0.373,-0.276 0.904,-0.767 1.592,-1.474 1.355,-1.513 2.318,-3.064 2.887,-4.656 0.688,-1.768 1.032,-3.605 1.032,-5.51 0,-2.476 -0.6,-4.853 -1.798,-7.132 -0.412,-0.747 -0.972,-1.561 -1.679,-2.446 -0.766,-0.884 -1.386,-1.503 -1.857,-1.857 -0.53,-0.432 -1.031,-0.795 -1.503,-1.089 -2.338,-1.415 -4.774,-2.122 -7.308,-2.122 H 8.458 c -2.672,0 -5.236,0.786 -7.692,2.357 -0.471,0.354 -0.894,0.687 -1.267,1.002 -0.766,0.648 -1.316,1.198 -1.65,1.65 -0.413,0.472 -0.796,0.983 -1.149,1.533 -0.393,0.628 -0.727,1.238 -1.002,1.827 -0.924,2.043 -1.385,4.076 -1.385,6.1 v 0.442 c 0,2.2 0.55,4.41 1.65,6.631 0.314,0.608 0.688,1.227 1.12,1.856 0.334,0.472 0.835,1.07 1.503,1.797 0.962,0.885 1.65,1.454 2.063,1.709 2.416,1.651 5.058,2.475 7.927,2.475"
         style="fill:#ffffff;fill-opacity:1;fill-rule:nonzero;stroke:none"
         id="path184"
         inkscape:connector-curvature="0" />
    </g>
    <g
       id="g186"
       transform="matrix(0.35277777,0,0,-0.35277777,93.109488,185.01974)">
      <path
         d="m 0,0 v -1.179 c 0,-0.55 0.147,-1.345 0.442,-2.386 0.235,-0.649 0.491,-1.229 0.766,-1.74 0.295,-0.431 0.717,-0.963 1.267,-1.591 0.609,-0.609 1.032,-0.982 1.268,-1.12 0.471,-0.314 0.884,-0.57 1.237,-0.766 1.238,-0.531 2.347,-0.795 3.33,-0.795 h 0.383 c 1.749,0 3.399,0.589 4.951,1.767 0.275,0.197 0.668,0.561 1.178,1.091 0.944,1.101 1.582,2.24 1.916,3.418 0.275,0.904 0.413,1.818 0.413,2.741 0,2.24 -0.737,4.244 -2.21,6.012 C 14.312,6.12 13.928,6.493 13.792,6.571 12.219,7.809 10.481,8.428 8.576,8.428 H 8.339 C 7.298,8.428 6.159,8.152 4.921,7.603 4.312,7.328 3.635,6.856 2.888,6.188 2.181,5.481 1.748,4.98 1.591,4.686 1.297,4.233 1.061,3.831 0.884,3.478 0.707,3.104 0.511,2.612 0.295,2.004 0.098,1.1 0,0.432 0,0 m 8.31,14.115 c 2.848,0 5.402,-0.697 7.662,-2.092 0.609,-0.354 1.346,-0.923 2.21,-1.71 0.727,-0.726 1.189,-1.227 1.385,-1.501 0.472,-0.61 0.894,-1.209 1.267,-1.798 1.336,-2.358 2.004,-4.903 2.004,-7.633 0,-3.241 -1.002,-6.237 -3.006,-8.987 -0.255,-0.374 -0.766,-0.963 -1.532,-1.769 l -0.53,-0.442 c -2.751,-2.298 -5.826,-3.448 -9.224,-3.448 -2.475,0 -4.715,0.707 -6.719,2.121 -0.373,0.256 -0.884,0.688 -1.532,1.297 L 0,-11.522 v -15.707 h -5.658 l -0.029,0.03 v 40.755 l 0.029,0.029 H 0 V 10.49 c 0.707,0.747 1.149,1.169 1.326,1.268 0.589,0.452 1.1,0.796 1.532,1.031 0.609,0.334 1.218,0.59 1.828,0.767 0.451,0.136 1.237,0.304 2.357,0.501 0.354,0.019 0.776,0.039 1.267,0.058"
         style="fill:#ffffff;fill-opacity:1;fill-rule:nonzero;stroke:none"
         id="path188"
         inkscape:connector-curvature="0" />
    </g>
    <g
       transform="matrix(0.35277777,0,0,-0.35277777,-42.287892,3350.6014)"
       id="g190">
      <g
         id="g192" />
      <g
         id="g204">
        <g
           clip-path="url(#clipPath196)"
           id="g202"
           style="opacity:0.30999804">
          <g
             transform="translate(264.9474,9066.459)"
             id="g200">
            <path
               d="m 0,0 c 0,-16.51 -13.384,-29.896 -29.894,-29.896 -16.511,0 -29.895,13.386 -29.895,29.896 0,16.51 13.384,29.896 29.895,29.896 C -13.384,29.896 0,16.51 0,0"
               style="fill:#ffffff;fill-opacity:1;fill-rule:nonzero;stroke:none"
               id="path198"
               inkscape:connector-curvature="0" />
          </g>
        </g>
      </g>
    </g>
    <g
       transform="matrix(0.35277777,0,0,-0.35277777,-42.287892,3350.6014)"
       id="g206">
      <g
         id="g208" />
      <g
         id="g220">
        <g
           clip-path="url(#clipPath212)"
           id="g218"
           style="opacity:0.30999804">
          <g
             transform="translate(310.8727,9066.459)"
             id="g216">
            <path
               d="m 0,0 c 0,-16.51 -13.384,-29.896 -29.893,-29.896 -16.512,0 -29.896,13.386 -29.896,29.896 0,16.51 13.384,29.896 29.896,29.896 C -13.384,29.896 0,16.51 0,0"
               style="fill:#ffffff;fill-opacity:1;fill-rule:nonzero;stroke:none"
               id="path214"
               inkscape:connector-curvature="0" />
          </g>
        </g>
      </g>
    </g>
    <g
       transform="matrix(0.35277777,0,0,-0.35277777,-42.287892,3350.6014)"
       id="g222">
      <g
         id="g224" />
      <g
         id="g236">
        <g
           clip-path="url(#clipPath228)"
           id="g234"
           style="opacity:0.66999799">
          <g
             transform="translate(287.8864,9098.6445)"
             id="g232">
            <path
               d="m 0,0 c 0,-16.51 -13.383,-29.894 -29.893,-29.894 -16.511,0 -29.896,13.384 -29.896,29.894 0,16.513 13.385,29.896 29.896,29.896 C -13.383,29.896 0,16.513 0,0"
               style="fill:#ffffff;fill-opacity:1;fill-rule:nonzero;stroke:none"
               id="path230"
               inkscape:connector-curvature="0" />
          </g>
        </g>
      </g>
    </g>
    <g
       transform="matrix(0.35277777,0,0,-0.35277777,-42.287892,3350.6014)"
       id="g238">
      <g
         id="g240" />
      <g
         id="g252">
        <g
           clip-path="url(#clipPath244)"
           id="g250"
           style="opacity:0.66000402">
          <g
             transform="translate(287.8864,9041.8447)"
             id="g248">
            <path
               d="m 0,0 c 0,-16.511 -13.383,-29.896 -29.893,-29.896 -16.511,0 -29.896,13.385 -29.896,29.896 0,16.511 13.385,29.895 29.896,29.895 C -13.383,29.895 0,16.511 0,0"
               style="fill:#ffffff;fill-opacity:1;fill-rule:nonzero;stroke:none"
               id="path246"
               inkscape:connector-curvature="0" />
          </g>
        </g>
      </g>
    </g>
  </g>
</svg>
