<?xml version="1.0" encoding="UTF-8" standalone="no"?>
<svg
   xmlns:dc="http://purl.org/dc/elements/1.1/"
   xmlns:cc="http://creativecommons.org/ns#"
   xmlns:rdf="http://www.w3.org/1999/02/22-rdf-syntax-ns#"
   xmlns:svg="http://www.w3.org/2000/svg"
   xmlns="http://www.w3.org/2000/svg"
   id="svg972"
   version="1.1"
   viewBox="0 0 65.433212 10.933147"
   height="10.933147mm"
   width="65.433212mm">
  <defs
     id="defs966" />
  <metadata
     id="metadata969">
    <rdf:RDF>
      <cc:Work
         rdf:about="">
        <dc:format>image/svg+xml</dc:format>
        <dc:type
           rdf:resource="http://purl.org/dc/dcmitype/StillImage" />
        <dc:title></dc:title>
      </cc:Work>
    </rdf:RDF>
  </metadata>
  <g
     transform="translate(93.192796,13.115383)"
     id="layer1">
    <g
       transform="matrix(0.35277777,0,0,-0.35277777,-87.878904,-8.3798357)"
       id="g64">
      <path
         id="path66"
         style="fill:#000000;fill-opacity:1;fill-rule:nonzero;stroke:none"
         d="m 0,0 v -9.774 h -4.517 v 9.217 c 0,1.578 -1.174,2.629 -2.876,2.629 -1.762,0 -3.155,-1.268 -3.155,-2.876 v -8.97 h -4.515 v 23.197 h 4.515 V 4.113 C -9.403,5.289 -7.856,6 -6.062,6 -2.444,6 0,3.649 0,0" />
    </g>
    <path
       id="path68"
       style="fill:#000000;fill-opacity:1;fill-rule:nonzero;stroke:none;stroke-width:0.35277775"
       d="m -86.472733,-10.387283 h 1.593144 v 5.4557082 h -1.593144 z m -0.09807,-1.833386 c 0,-0.490714 0.414514,-0.894644 0.894644,-0.894644 0.491067,0 0.905934,0.40393 0.905934,0.894644 0,0.491067 -0.414867,0.894997 -0.905934,0.894997 -0.48013,0 -0.894644,-0.40393 -0.894644,-0.894997" />
    <g
       transform="matrix(0.35277777,0,0,-0.35277777,-79.741241,-7.0813665)"
       id="g70">
      <path
         id="path72"
         style="fill:#000000;fill-opacity:1;fill-rule:nonzero;stroke:none"
         d="m 0,0 v 3.278 c -0.557,1.454 -1.825,2.475 -3.31,2.475 -2.196,0 -3.618,-1.825 -3.618,-4.114 0,-2.289 1.422,-4.082 3.618,-4.082 1.485,0 2.753,0.989 3.31,2.443 M 4.484,9.372 V -6.031 c 0,-4.702 -3.185,-7.795 -7.948,-7.795 -1.732,0 -3.185,0.341 -4.485,0.928 v 4.299 c 1.237,-0.927 2.66,-1.515 4.515,-1.515 1.857,0 3.434,1.299 3.434,4.083 v 1.299 c -1.082,-1.052 -2.505,-1.67 -4.206,-1.67 -4.237,0 -7.176,3.526 -7.176,8.041 0,4.516 2.939,8.042 7.176,8.042 1.824,0 3.34,-0.712 4.453,-1.918 l 0.217,1.609 z" />
    </g>
    <g
       transform="matrix(0.35277777,0,0,-0.35277777,-71.537464,-8.3798357)"
       id="g74">
      <path
         id="path76"
         style="fill:#000000;fill-opacity:1;fill-rule:nonzero;stroke:none"
         d="m 0,0 v -9.774 h -4.517 v 9.217 c 0,1.578 -1.174,2.629 -2.876,2.629 -1.762,0 -3.155,-1.268 -3.155,-2.876 v -8.97 h -4.515 v 23.197 h 4.515 V 4.113 C -9.403,5.289 -7.856,6 -6.062,6 -2.444,6 0,3.649 0,0" />
    </g>
    <g
       transform="matrix(0.35277777,0,0,-0.35277777,-61.653133,-8.4015315)"
       id="g78">
      <path
         id="path80"
         style="fill:#00ce69;fill-opacity:1;fill-rule:nonzero;stroke:none"
         d="m 0,0 v -9.835 h -4.516 v 9.278 c 0,1.516 -1.021,2.568 -2.567,2.568 -1.608,0 -2.846,-1.268 -2.846,-2.877 v -8.969 h -4.515 v 9.278 c 0,1.516 -1.021,2.568 -2.536,2.568 -1.609,0 -2.877,-1.268 -2.877,-2.877 v -8.969 h -4.516 V 5.629 h 4.052 l 0.217,-1.639 c 1.083,1.206 2.597,1.948 4.391,1.948 2.135,0 3.836,-0.896 4.825,-2.412 1.206,1.485 3,2.412 5.104,2.412 C -2.289,5.938 0,3.588 0,0" />
    </g>
    <g
       transform="matrix(0.35277777,0,0,-0.35277777,-56.570593,-7.6596399)"
       id="g82">
      <path
         id="path84"
         style="fill:#00ce69;fill-opacity:1;fill-rule:nonzero;stroke:none"
         d="m 0,0 c 0,2.289 -1.484,4.114 -3.619,4.114 -2.196,0 -3.618,-1.825 -3.618,-4.114 0,-2.289 1.422,-4.083 3.618,-4.083 C -1.484,-4.083 0,-2.289 0,0 m -11.691,0 c 0,4.516 3.371,8.042 8.072,8.042 4.671,0 8.073,-3.526 8.073,-8.042 0,-4.485 -3.402,-8.042 -8.073,-8.042 -4.701,0 -8.072,3.557 -8.072,8.042" />
    </g>
    <g
       transform="matrix(0.35277777,0,0,-0.35277777,-49.992523,-7.6596399)"
       id="g86">
      <path
         id="path88"
         style="fill:#00ce69;fill-opacity:1;fill-rule:nonzero;stroke:none"
         d="m 0,0 c 0,2.289 -1.453,4.114 -3.618,4.114 -1.516,0 -2.816,-1.021 -3.341,-2.506 v -3.216 c 0.525,-1.485 1.825,-2.475 3.341,-2.475 C -1.453,-4.083 0,-2.289 0,0 m 4.454,0 c 0,-4.516 -2.97,-8.042 -7.176,-8.042 -1.855,0 -3.371,0.711 -4.515,1.949 l -0.186,-1.67 -3.99,0.031 v 23.197 h 4.454 V 6.372 c 1.083,1.051 2.505,1.67 4.237,1.67 4.206,0 7.176,-3.526 7.176,-8.042" />
    </g>
    <path
       id="path90"
       style="fill:#00ce69;fill-opacity:1;fill-rule:nonzero;stroke:none;stroke-width:0.35277775"
       d="m -47.320398,-10.387283 h 1.593144 v 5.4557082 h -1.593144 z m -0.09842,-1.833386 c 0,-0.490714 0.414515,-0.894644 0.894998,-0.894644 0.490713,0 0.905579,0.40393 0.905579,0.894644 0,0.491067 -0.414866,0.894997 -0.905579,0.894997 -0.480483,0 -0.894998,-0.40393 -0.894998,-0.894997" />
    <g
       transform="matrix(0.35277777,0,0,-0.35277777,-44.233337,-6.8412307)"
       id="g92">
      <path
         id="path94"
         style="fill:#00ce69;fill-opacity:1;fill-rule:nonzero;stroke:none"
         d="M 0,0 V 17.785 H 4.516 V -0.031 c 0,-1.268 0.649,-1.886 1.608,-1.886 0.587,0 1.021,0.154 1.392,0.556 L 9.681,-4.578 C 8.814,-5.32 7.64,-5.722 6.154,-5.722 1.948,-5.722 0,-3.433 0,0" />
    </g>
    <path
       id="path96"
       style="fill:#00ce69;fill-opacity:1;fill-rule:nonzero;stroke:none;stroke-width:0.35277775"
       d="m -40.207691,-10.387283 h 1.593143 v 5.4557082 h -1.593143 z m -0.09807,-1.833386 c 0,-0.490714 0.41416,-0.894644 0.894643,-0.894644 0.490715,0 0.905582,0.40393 0.905582,0.894644 0,0.491067 -0.414867,0.894997 -0.905582,0.894997 -0.480483,0 -0.894643,-0.40393 -0.894643,-0.894997" />
    <g
       transform="matrix(0.35277777,0,0,-0.35277777,-33.585604,-5.2263569)"
       id="g98">
      <path
         id="path100"
         style="fill:#00ce69;fill-opacity:1;fill-rule:nonzero;stroke:none"
         d="m 0,0 c -0.866,-0.742 -2.042,-1.144 -3.526,-1.144 -4.206,0 -6.156,2.289 -6.156,5.722 v 6.68 h -1.855 v 3.372 h 1.855 v 5.258 h 4.517 V 14.63 H -1.3 V 11.258 H -5.165 V 4.547 c 0,-1.268 0.649,-1.887 1.607,-1.887 0.588,0 1.022,0.155 1.393,0.557 z" />
    </g>
    <g
       transform="matrix(0.35277777,0,0,-0.35277777,-27.759585,-4.9317857)"
       id="g102">
      <path
         id="path104"
         style="fill:#00ce69;fill-opacity:1;fill-rule:nonzero;stroke:none"
         d="m 0,0 c 0,-4.701 -3.278,-7.794 -8.382,-7.794 -1.949,0 -3.526,0.34 -4.918,0.959 v 4.299 c 1.33,-0.959 2.907,-1.547 4.98,-1.547 2.133,0 3.804,1.33 3.804,4.083 v 1.578 c -1.175,-1.176 -2.721,-1.887 -4.454,-1.887 -3.433,0 -6.124,2.784 -6.124,6.278 v 9.496 h 4.516 V 6.526 c 0,-1.608 1.268,-2.876 2.907,-2.876 1.733,0 3.155,1.268 3.155,2.876 v 8.939 h 4.485 z" />
    </g>
  </g>
</svg>
