<?xml version="1.0" encoding="UTF-8" standalone="no"?>
<!-- Generator: Adobe Illustrator 19.0.0, SVG Export Plug-In . SVG Version: 6.00 Build 0)  -->

<svg
   xmlns:dc="http://purl.org/dc/elements/1.1/"
   xmlns:cc="http://creativecommons.org/ns#"
   xmlns:rdf="http://www.w3.org/1999/02/22-rdf-syntax-ns#"
   xmlns:svg="http://www.w3.org/2000/svg"
   xmlns="http://www.w3.org/2000/svg"
   xmlns:sodipodi="http://sodipodi.sourceforge.net/DTD/sodipodi-0.dtd"
   xmlns:inkscape="http://www.inkscape.org/namespaces/inkscape"
   version="1.1"
   id="Layer_1"
   x="0px"
   y="0px"
   viewBox="0 0 131.5 40.2"
   style="enable-background:new 0 0 131.5 40.2;"
   xml:space="preserve"
   sodipodi:docname="salud-hm.svg"
   inkscape:version="0.92.3 (2405546, 2018-03-11)"><metadata
   id="metadata26"><rdf:RDF><cc:Work
       rdf:about=""><dc:format>image/svg+xml</dc:format><dc:type
         rdf:resource="http://purl.org/dc/dcmitype/StillImage" /></cc:Work></rdf:RDF></metadata><defs
   id="defs24" /><sodipodi:namedview
   pagecolor="#ffffff"
   bordercolor="#666666"
   borderopacity="1"
   objecttolerance="10"
   gridtolerance="10"
   guidetolerance="10"
   inkscape:pageopacity="0"
   inkscape:pageshadow="2"
   inkscape:window-width="1782"
   inkscape:window-height="821"
   id="namedview22"
   showgrid="false"
   inkscape:zoom="2.6920152"
   inkscape:cx="67.235876"
   inkscape:cy="20.1"
   inkscape:window-x="0"
   inkscape:window-y="39"
   inkscape:window-maximized="0"
   inkscape:current-layer="XMLID_119_" />
<style
   type="text/css"
   id="style2">
	.st0{fill:#00CE69;}
	.st1{fill:#231F20;}
</style>
<g
   id="XMLID_1_">
	<g
   id="XMLID_136_">
		<path
   id="XMLID_152_"
   d="M1.8,29.9c0,0,0-0.1,0-0.1l0.6-2c0.2-0.2,0.3-0.2,0.5-0.2c1,0.4,2.7,1,4.7,1c0.8,0,2.6-0.3,2.6-1.4    c0-2.9-8.5-1.2-8.5-7.3c0-3.1,2.8-4.6,6.3-4.6c1.7,0,3.5,0.4,4.5,0.8c0.2,0.1,0.3,0.2,0.3,0.5l-0.6,2.2c0,0.1-0.2,0.3-0.4,0.3    c-1.2-0.3-2.7-0.5-3.9-0.5c-2,0-2.2,0.6-2.2,1.4c0,2.2,8.5,1.6,8.5,6.7c0,3.8-3.5,4.9-6.5,4.9c-1.9,0-3.7-0.2-5.6-1.3    C2,30.3,1.8,30.1,1.8,29.9z" />
		<path
   id="XMLID_148_"
   d="M28,29.5c-1.2,2.2-4.5,2.2-4.9,2.2c-1.7,0-5.6-0.6-5.6-5.1c0-3.4,2.3-5.2,5.5-5.2c1.4,0,3.5,0.4,4.3,1.3    c0-3.1-1.6-3.9-4.3-3.9c-0.4,0-1.5,0.1-2.8,0.4c-0.2,0-0.2,0.1-0.3,0.1c-0.2,0-0.3-0.1-0.4-0.3l-0.8-1.8c-0.1-0.2-0.1-0.3-0.1-0.5    c0-0.2,0-0.3,0.2-0.4c2.1-1.1,3.5-1.1,4.9-1.1c4.9,0,7.6,2.7,7.6,7.2V31c0,0.2-0.2,0.4-0.4,0.4h-2.1c-0.2,0-0.4-0.1-0.6-0.4    L28,29.5z M27.3,27.1v-1.3c-0.6-1-2.4-1.4-3.5-1.4c-2,0-2.5,0.8-2.5,1.9c0,1.6,0.9,2,2.9,2C24.6,28.3,26.3,28.2,27.3,27.1z" />
		<path
   id="XMLID_146_"
   d="M36.6,9.1c0-0.2,0.2-0.4,0.4-0.4h3c0.2,0,0.4,0.2,0.4,0.4v22c0,0.2-0.2,0.4-0.4,0.4h-3    c-0.2,0-0.4-0.2-0.4-0.4V9.1z" />
		<path
   id="XMLID_144_"
   d="M57.2,29.5c-1.4,1.7-3.3,2.2-4.9,2.2c-4.9,0-6.7-3.3-6.7-7.1v-8.7c0-0.2,0.2-0.4,0.4-0.4h3    c0.2,0,0.4,0.2,0.4,0.4v8.3c0,2.3,0.4,4.3,3.8,4.3c2.4,0,3.5-2,3.5-4.3v-8.3c0-0.2,0.2-0.4,0.4-0.4h3c0.2,0,0.4,0.2,0.4,0.4V31    c0,0.2-0.2,0.4-0.4,0.4H58c-0.2,0-0.4-0.2-0.4-0.4L57.2,29.5z" />
		<path
   id="XMLID_141_"
   d="M77.7,29.3c-1.4,2-3.8,2.3-5.6,2.3c-4.2,0-7.3-3.8-7.3-8.3c0-4.5,3.2-8.1,7.6-8.1c0.8,0,3.3,0,4.9,2.2    V9.1c0-0.2,0.2-0.4,0.4-0.4h3c0.2,0,0.4,0.2,0.4,0.4v22c0,0.2-0.2,0.4-0.4,0.4h-2.2c-0.2,0-0.4-0.1-0.6-0.4L77.7,29.3z M77.3,23.4    c0-2.8-2-4.7-4.4-4.7c-2.4,0-4.2,1.9-4.2,4.7c0,2.7,1.8,4.9,4.2,4.9C75.3,28.3,77.3,26.2,77.3,23.4z" />
		<path
   id="XMLID_139_"
   class="st0"
   d="M90.7,16.9c1.4-1.3,3-1.7,4.4-1.7c4.9,0,6.7,3.3,6.7,7.1V31c0,0.2-0.2,0.4-0.4,0.4h-3    c-0.2,0-0.4-0.2-0.4-0.4v-8.1c0-2.3-0.4-4.3-3.8-4.3c-2.4,0-3.5,2-3.5,4.3V31c0,0.2-0.2,0.4-0.4,0.4h-3c-0.2,0-0.4-0.2-0.4-0.4    v-22c0-0.2,0.2-0.4,0.4-0.4h3c0.2,0,0.4,0.2,0.4,0.4V16.9z" />
		<path
   id="XMLID_137_"
   class="st0"
   d="M129.1,31c0,0.2-0.2,0.4-0.4,0.4h-3c-0.2,0-0.4-0.2-0.4-0.4v-8.7c0-2.4-0.7-3.6-2.4-3.6    c-1.4,0-2.7,1-2.8,2.5c0,0.4,0,0.8,0,1.2V31c0,0.2-0.2,0.4-0.4,0.4h-3c-0.2,0-0.4-0.2-0.4-0.4V23c0-2.3-0.6-4.3-2.4-4.3    c-2,0-2.9,2-2.9,4.3V31c0,0.2-0.2,0.4-0.4,0.4h-3c-0.2,0-0.4-0.2-0.4-0.4V15.8c0-0.2,0.2-0.4,0.4-0.4h2.4c0.2,0,0.4,0.2,0.4,0.4    l0.3,1.5c1.4-1.6,3-2.1,4.3-2.1c1.6,0,3.2,1,4.2,2.5c1.4-2.2,3.3-2.5,4.9-2.5c3.2,0,5.2,3,5.2,6.7V31z" />
	</g>
	<g
   id="XMLID_119_">
		<path
   id="XMLID_134_"
   class="st1"
   d="M1.8,29.9c0,0,0-0.1,0-0.1l0.6-2c0.2-0.2,0.3-0.2,0.5-0.2c1,0.4,2.7,1,4.7,1    c0.8,0,2.6-0.3,2.6-1.4c0-2.9-8.5-1.2-8.5-7.3c0-3.1,2.8-4.6,6.3-4.6c1.7,0,3.5,0.4,4.5,0.8c0.2,0.1,0.3,0.2,0.3,0.5l-0.6,2.2    c0,0.1-0.2,0.3-0.4,0.3c-1.2-0.3-2.7-0.5-3.9-0.5c-2,0-2.2,0.6-2.2,1.4c0,2.2,8.5,1.6,8.5,6.7c0,3.8-3.5,4.9-6.5,4.9    c-1.9,0-3.7-0.2-5.6-1.3C2,30.3,1.8,30.1,1.8,29.9z" />
		<path
   id="XMLID_131_"
   class="st1"
   d="M28,29.5c-1.2,2.2-4.5,2.2-4.9,2.2c-1.7,0-5.6-0.6-5.6-5.1c0-3.4,2.3-5.2,5.5-5.2    c1.4,0,3.5,0.4,4.3,1.3c0-3.1-1.6-3.9-4.3-3.9c-0.4,0-1.5,0.1-2.8,0.4c-0.2,0-0.2,0.1-0.3,0.1c-0.2,0-0.3-0.1-0.4-0.3l-0.8-1.8    c-0.1-0.2-0.1-0.3-0.1-0.5c0-0.2,0-0.3,0.2-0.4c2.1-1.1,3.5-1.1,4.9-1.1c4.9,0,7.6,2.7,7.6,7.2V31c0,0.2-0.2,0.4-0.4,0.4h-2.1    c-0.2,0-0.4-0.1-0.6-0.4L28,29.5z M27.3,27.1v-1.3c-0.6-1-2.4-1.4-3.5-1.4c-2,0-2.5,0.8-2.5,1.9c0,1.6,0.9,2,2.9,2    C24.6,28.3,26.3,28.2,27.3,27.1z" />
		<path
   id="XMLID_129_"
   class="st1"
   d="M36.6,9.1c0-0.2,0.2-0.4,0.4-0.4h3c0.2,0,0.4,0.2,0.4,0.4v22c0,0.2-0.2,0.4-0.4,0.4h-3    c-0.2,0-0.4-0.2-0.4-0.4V9.1z" />
		<path
   id="XMLID_127_"
   class="st1"
   d="M57.2,29.5c-1.4,1.7-3.3,2.2-4.9,2.2c-4.9,0-6.7-3.3-6.7-7.1v-8.7c0-0.2,0.2-0.4,0.4-0.4h3    c0.2,0,0.4,0.2,0.4,0.4v8.3c0,2.3,0.4,4.3,3.8,4.3c2.4,0,3.5-2,3.5-4.3v-8.3c0-0.2,0.2-0.4,0.4-0.4h3c0.2,0,0.4,0.2,0.4,0.4V31    c0,0.2-0.2,0.4-0.4,0.4H58c-0.2,0-0.4-0.2-0.4-0.4L57.2,29.5z" />
		<path
   id="XMLID_124_"
   class="st1"
   d="M77.7,29.3c-1.4,2-3.8,2.3-5.6,2.3c-4.2,0-7.3-3.8-7.3-8.3c0-4.5,3.2-8.1,7.6-8.1    c0.8,0,3.3,0,4.9,2.2V9.1c0-0.2,0.2-0.4,0.4-0.4h3c0.2,0,0.4,0.2,0.4,0.4v22c0,0.2-0.2,0.4-0.4,0.4h-2.2c-0.2,0-0.4-0.1-0.6-0.4    L77.7,29.3z M77.3,23.4c0-2.8-2-4.7-4.4-4.7c-2.4,0-4.2,1.9-4.2,4.7c0,2.7,1.8,4.9,4.2,4.9C75.3,28.3,77.3,26.2,77.3,23.4z" />
		<path
   id="XMLID_122_"
   class="st1"
   d="M90.7,16.9c1.4-1.3,3-1.7,4.4-1.7c4.9,0,6.7,3.3,6.7,7.1V31c0,0.2-0.2,0.4-0.4,0.4h-3    c-0.2,0-0.4-0.2-0.4-0.4v-8.1c0-2.3-0.4-4.3-3.8-4.3c-2.4,0-3.5,2-3.5,4.3V31c0,0.2-0.2,0.4-0.4,0.4h-3c-0.2,0-0.4-0.2-0.4-0.4    v-22c0-0.2,0.2-0.4,0.4-0.4h3c0.2,0,0.4,0.2,0.4,0.4V16.9z"
   style="fill:#00ce69;fill-opacity:1" />
		<path
   id="XMLID_120_"
   class="st1"
   d="M129.1,31c0,0.2-0.2,0.4-0.4,0.4h-3c-0.2,0-0.4-0.2-0.4-0.4v-8.7c0-2.4-0.7-3.6-2.4-3.6    c-1.4,0-2.7,1-2.8,2.5c0,0.4,0,0.8,0,1.2V31c0,0.2-0.2,0.4-0.4,0.4h-3c-0.2,0-0.4-0.2-0.4-0.4V23c0-2.3-0.6-4.3-2.4-4.3    c-2,0-2.9,2-2.9,4.3V31c0,0.2-0.2,0.4-0.4,0.4h-3c-0.2,0-0.4-0.2-0.4-0.4V15.8c0-0.2,0.2-0.4,0.4-0.4h2.4c0.2,0,0.4,0.2,0.4,0.4    l0.3,1.5c1.4-1.6,3-2.1,4.3-2.1c1.6,0,3.2,1,4.2,2.5c1.4-2.2,3.3-2.5,4.9-2.5c3.2,0,5.2,3,5.2,6.7V31z"
   style="fill:#00ce69;fill-opacity:1" />
	</g>
</g>
</svg>